<svg width="361" height="346" viewBox="0 0 361 346" fill="none" xmlns="http://www.w3.org/2000/svg">
<path d="M203.688 343.558C189.632 336.905 184.031 321.088 182.049 306.355C181.715 303.909 181.014 301.365 181.813 299.017C182.612 296.668 185.074 294.752 187.439 295.413C189.404 295.959 190.553 297.932 191.866 299.49C193.612 301.59 195.919 303.151 198.519 303.99C200.215 304.536 202.229 304.708 203.623 303.599C205.531 302.074 205.254 299.123 204.862 296.693C204.063 292.187 203.281 287.681 202.514 283.175C201.962 280.77 201.799 278.293 202.033 275.837C202.392 273.391 203.705 270.945 205.906 269.934C208.107 268.923 211.197 269.746 212.086 272.046C212.348 273.034 212.544 274.039 212.673 275.054C212.91 276.057 213.57 277.092 214.573 277.215C215.576 277.337 216.448 276.481 217.06 275.641C219.147 272.763 220.321 269.314 221.381 265.898C222.441 262.482 223.435 259 225.262 255.935C227.088 252.869 229.877 250.227 233.325 249.412C236.774 248.597 240.851 250.146 242.294 253.415C243.737 256.685 242.343 260.509 240.663 263.656C238.113 268.316 234.902 272.583 231.132 276.326C230.38 276.925 229.838 277.747 229.583 278.674C229.33 280.386 231.14 281.74 232.844 282.001C234.752 282.294 236.693 281.772 238.625 281.675C240.557 281.577 242.751 282.066 243.778 283.737C245.188 286.053 243.55 289.013 241.797 291.075C238.276 295.185 234.076 298.66 229.379 301.348C227.7 302.302 225.914 303.199 224.683 304.699C223.452 306.2 222.954 308.531 224.112 310.097C225.27 311.662 227.61 311.834 229.42 311.165C231.23 310.496 232.738 309.2 234.41 308.23C237.541 306.403 241.895 305.898 244.528 308.425C245.349 309.309 245.954 310.372 246.295 311.529C246.636 312.686 246.704 313.907 246.493 315.095C246.059 317.461 245.152 319.716 243.827 321.723C239.604 328.982 233.533 334.991 226.232 339.139C218.935 343.134 211.874 345.083 203.696 343.566" fill="#F5F5F5"/>
<path d="M205.914 333.725C206.995 325.334 208.558 317.012 210.594 308.8L212.159 302.335C212.673 300.207 213.187 298.103 213.79 296.081C215.009 292.201 216.441 288.39 218.079 284.667C219.619 281.096 221.209 277.753 222.718 274.646C224.226 271.54 225.702 268.67 227.153 266.118C229.419 262.07 232.003 258.21 234.882 254.573C235.902 253.285 236.725 252.315 237.288 251.662C237.557 251.352 237.777 251.108 237.932 250.92C238.087 250.733 238.16 250.676 238.168 250.684C238.109 250.778 238.044 250.868 237.973 250.953L237.353 251.719C236.815 252.388 236.016 253.35 235.021 254.679C232.205 258.351 229.667 262.23 227.43 266.281C226.003 268.841 224.552 271.711 223.052 274.818C221.552 277.924 219.986 281.267 218.462 284.838C216.838 288.561 215.423 292.372 214.222 296.253C213.594 298.266 213.089 300.329 212.591 302.482L211.026 308.955C208.994 317.15 207.424 325.452 206.321 333.823" fill="#E0E0E0"/>
<path d="M213.929 296.049C213.752 295.732 213.612 295.395 213.513 295.046C213.268 294.402 212.95 293.415 212.575 292.266C211.825 289.901 210.896 286.599 209.885 282.963C208.874 279.326 207.903 276.041 207.112 273.701C206.721 272.527 206.395 271.573 206.167 270.929C206.03 270.594 205.923 270.247 205.849 269.893C206.045 270.197 206.207 270.523 206.33 270.863C206.615 271.491 206.982 272.429 207.414 273.587C208.286 275.918 209.306 279.188 210.325 282.84C211.344 286.493 212.2 289.689 212.885 292.168C213.203 293.293 213.464 294.239 213.7 294.997C213.807 295.34 213.883 295.692 213.929 296.049Z" fill="#E0E0E0"/>
<path d="M244.218 284.912C243.824 285.076 243.414 285.199 242.995 285.279C242.18 285.482 241.063 285.776 239.66 286.184C236.847 286.999 233.007 288.206 228.824 289.755C224.642 291.304 220.916 292.877 218.225 294.084C216.888 294.679 215.82 295.193 215.078 295.544C214.705 295.746 214.315 295.916 213.912 296.049C214.249 295.789 214.613 295.565 214.996 295.38C215.714 294.981 216.766 294.426 218.087 293.75C220.72 292.462 224.438 290.839 228.629 289.282C232.206 287.944 235.85 286.792 239.546 285.833C240.965 285.458 242.122 285.213 242.93 285.058C243.354 284.969 243.785 284.92 244.218 284.912Z" fill="#E0E0E0"/>
<path d="M206.199 333.098C206.095 332.991 206.002 332.873 205.922 332.747L205.197 331.712C204.569 330.799 203.696 329.47 202.645 327.806C200.525 324.48 197.753 319.792 194.76 314.574C191.768 309.355 189.053 304.651 186.99 301.292L184.544 297.305L183.892 296.22C183.806 296.1 183.737 295.969 183.688 295.829C183.688 295.829 183.794 295.935 183.965 296.172C184.137 296.408 184.406 296.791 184.691 297.215C185.319 298.12 186.191 299.449 187.251 301.121C189.363 304.447 192.143 309.127 195.135 314.345C198.128 319.563 200.843 324.268 202.897 327.635L205.343 331.614C205.604 332.046 205.824 332.429 205.996 332.698C206.083 332.821 206.152 332.955 206.199 333.098Z" fill="#E0E0E0"/>
<path d="M245.482 312.673C245.367 312.774 245.238 312.856 245.098 312.918L243.965 313.521L239.758 315.715C236.203 317.573 231.328 320.191 225.946 323.052C220.565 325.914 215.665 328.531 212.086 330.309C210.292 331.198 208.824 331.94 207.813 332.372L206.59 332.91C206.456 332.981 206.314 333.036 206.167 333.073C206.283 332.975 206.412 332.893 206.55 332.828L207.691 332.225L211.898 330.024C215.445 328.173 220.321 325.556 225.702 322.686C231.083 319.816 235.991 317.215 239.562 315.437C241.356 314.549 242.824 313.807 243.835 313.375L245.009 312.836C245.157 312.758 245.317 312.703 245.482 312.673Z" fill="#E0E0E0"/>
<path d="M101.739 168.548C101.739 168.548 92.0533 169.893 97.4916 191.108C102.93 212.323 107.545 223.264 107.545 223.264C107.545 223.264 108.27 228.067 104.397 227.92C100.525 227.773 92.6241 224.659 89.9416 228.809C87.1695 233.146 89.5992 238.364 95.6489 243.835C101.699 249.306 114.597 261.772 115.755 262.906C116.913 264.039 117.761 266.371 115.103 266.689C112.445 267.007 93.5943 264.797 93.0888 273.807C92.5833 282.816 112.013 295.274 114.108 296.677C116.203 298.079 116.554 299.171 116.065 300.394C115.576 301.617 109.33 300.272 103.941 299.856C98.5515 299.441 92.2246 299.922 92.3632 305.14C92.5018 310.358 102.71 323.566 132.469 333.383L146.566 337.027L156.978 326.77C177.932 303.46 180.223 286.933 177.752 282.335C175.282 277.737 169.599 280.468 165.082 283.501C160.565 286.534 155.836 290.839 154.825 290.023C153.814 289.208 153.554 288.083 154.679 285.825C155.804 283.566 166.476 263.101 161.552 255.535C156.627 247.969 141.364 259.237 138.918 260.272C136.472 261.308 136.032 258.845 136.472 257.313C136.913 255.78 141.886 238.56 144.446 230.774C147.006 222.987 146.517 217.264 141.951 214.883C137.549 212.592 132.257 219.245 128.963 221.299C125.669 223.354 123.925 218.854 123.925 218.854C123.925 218.854 122.49 207.072 116.668 185.955C110.847 164.838 101.56 168.621 101.56 168.621" fill="#EBEBEB"/>
<path d="M146.558 340.533C142.343 325.042 135.306 297.321 129.151 273.521C122.995 249.722 117.402 228.262 113.26 212.722C111.189 204.96 109.509 198.682 108.368 194.32C107.797 192.16 107.349 190.472 107.039 189.314L106.696 188.01C106.623 187.716 106.599 187.561 106.599 187.561C106.599 187.561 106.656 187.7 106.745 187.993C106.835 188.287 106.957 188.735 107.12 189.29C107.455 190.448 107.936 192.119 108.539 194.271C109.762 198.601 111.491 204.871 113.594 212.633C117.809 228.124 123.46 249.657 129.615 273.407C135.771 297.158 142.75 324.903 146.892 340.443" fill="#E0E0E0"/>
<path d="M100.818 233.652C101.144 233.786 101.455 233.953 101.748 234.149C102.326 234.492 103.158 235.013 104.194 235.666C106.224 236.978 108.988 238.862 111.996 240.99L119.677 246.469L122.017 248.099C122.312 248.283 122.585 248.499 122.832 248.744C122.503 248.611 122.189 248.444 121.894 248.246C121.315 247.904 120.484 247.382 119.448 246.722C117.434 245.393 114.695 243.46 111.686 241.34L103.965 235.918L101.617 234.288C101.329 234.105 101.061 233.892 100.818 233.652Z" fill="#E0E0E0"/>
<path d="M124.014 248.067C123.908 248.001 127.536 242.139 132.11 234.973C136.684 227.806 140.492 222.05 140.598 222.115C140.704 222.18 137.076 228.05 132.493 235.217C127.911 242.384 124.12 248.116 124.014 248.067Z" fill="#E0E0E0"/>
<path d="M131.825 284.985C132.051 284.704 132.311 284.452 132.6 284.235L134.793 282.311C136.644 280.68 139.196 278.43 141.919 275.837C144.642 273.244 147.039 270.823 148.751 269.054C149.567 268.238 150.235 267.513 150.782 266.958C151.028 266.685 151.302 266.436 151.597 266.216C151.416 266.528 151.197 266.816 150.945 267.072C150.504 267.602 149.844 268.352 149.012 269.266C147.382 271.1 145.001 273.571 142.261 276.163C139.522 278.756 136.945 280.99 135.038 282.555C134.076 283.371 133.293 283.958 132.738 284.374C132.457 284.611 132.151 284.816 131.825 284.985Z" fill="#E0E0E0"/>
<path d="M107.977 276.562C108.306 276.602 108.629 276.681 108.939 276.799L111.523 277.614C113.692 278.307 116.685 279.294 119.978 280.403C123.272 281.512 126.248 282.555 128.393 283.33L130.928 284.259C131.244 284.358 131.548 284.492 131.833 284.659C131.504 284.625 131.18 284.549 130.871 284.43L128.287 283.615C126.118 282.922 123.126 281.935 119.832 280.818C116.538 279.701 113.562 278.666 111.417 277.9L108.882 276.962C108.564 276.87 108.259 276.736 107.977 276.562Z" fill="#E0E0E0"/>
<path d="M110.732 310.032C111.152 310.094 111.564 310.198 111.964 310.342L115.274 311.353C118.062 312.225 121.902 313.456 126.142 314.85C130.382 316.245 134.206 317.516 136.97 318.47L140.231 319.612C140.637 319.742 141.032 319.903 141.413 320.093C140.991 320.031 140.576 319.927 140.174 319.783L136.864 318.772C134.075 317.9 130.235 316.669 125.995 315.274C121.756 313.88 117.932 312.6 115.176 311.654L111.915 310.505C111.507 310.383 111.111 310.225 110.732 310.032Z" fill="#E0E0E0"/>
<path d="M140.745 319.644C141.032 319.292 141.351 318.967 141.699 318.674L144.398 316.139C146.672 313.994 149.803 311.018 153.17 307.635C156.538 304.251 159.514 301.112 161.65 298.829L164.177 296.122C164.475 295.776 164.799 295.455 165.148 295.16C164.91 295.544 164.637 295.904 164.332 296.236C163.778 296.913 162.946 297.867 161.886 299.041C159.807 301.389 156.872 304.569 153.488 307.953C150.105 311.336 146.966 314.288 144.618 316.375C143.444 317.41 142.49 318.25 141.813 318.821C141.48 319.125 141.123 319.4 140.745 319.644Z" fill="#E0E0E0"/>
<path d="M59.6685 42.0336L51.7109 39.5876C51.7109 39.5876 49.6237 46.2733 42.6445 44.2268C41.2933 43.8547 40.0912 43.0719 39.2046 41.9865C38.3179 40.9012 37.7905 39.5671 37.6954 38.1689C37.591 36.9898 37.7695 35.8028 38.2162 34.7066C38.6629 33.6104 39.3649 32.6367 40.2637 31.8664C42.3102 30.0564 45.8976 28.9557 50.9608 31.5729L56.5621 13.6357L48.6942 11.1897L45.4329 21.6993C45.4329 21.6993 33.4965 21.1041 29.7052 33.2606C26.077 44.8954 35.6653 50.8554 40.1333 52.2496C43.525 53.3095 55.437 56.1143 59.6685 42.0336Z" fill="#F5F5F5"/>
<path d="M49.7598 7.45644L57.7454 9.94824L60.072 2.49197L52.0865 0.000171845L49.7598 7.45644Z" fill="#F5F5F5"/>
<path d="M81.6253 21.7805L84.8132 20.9652C84.7159 20.6031 84.6923 20.2252 84.744 19.8539C84.7956 19.4826 84.9214 19.1254 85.1138 18.8037C85.3063 18.482 85.5614 18.2022 85.8641 17.981C86.1669 17.7599 86.511 17.6019 86.876 17.5163C87.4071 17.356 87.975 17.3648 88.5009 17.5416C89.0268 17.7183 89.4847 18.0543 89.8112 18.5029C90.0883 18.8754 90.2734 19.3081 90.3514 19.7658C90.4293 20.2235 90.3978 20.6932 90.2596 21.1364C89.9579 22.1719 88.9877 23.297 86.7374 23.4845L88.6371 30.6676L91.7842 29.8523L90.6754 25.6452C91.8689 24.9253 92.7924 23.8329 93.3037 22.5363C93.815 21.2397 93.8856 19.8109 93.5046 18.4703C92.2816 13.8066 87.7973 13.8311 86.028 14.2958C84.6583 14.6138 80.0843 16.171 81.6253 21.7805Z" fill="#EBEBEB"/>
<path d="M92.8945 30.8998L89.6836 31.7605L90.487 34.7579L93.6979 33.8972L92.8945 30.8998Z" fill="#EBEBEB"/>
<path d="M344.821 104.3L347.92 105.417C348.05 105.066 348.248 104.745 348.504 104.472C348.76 104.199 349.069 103.981 349.41 103.829C349.752 103.677 350.121 103.595 350.495 103.587C350.869 103.58 351.241 103.648 351.589 103.786C352.11 103.954 352.568 104.279 352.897 104.717C353.227 105.155 353.414 105.684 353.431 106.232C353.45 106.7 353.358 107.166 353.163 107.591C352.967 108.016 352.674 108.389 352.306 108.678C351.491 109.355 350.031 109.722 348.074 108.597L345.539 115.584L348.604 116.693L350.088 112.616C351.48 112.703 352.861 112.33 354.02 111.555C355.18 110.78 356.052 109.647 356.505 108.328C358.136 103.795 354.458 101.275 352.722 100.647C351.393 100.126 346.745 98.8129 344.821 104.3Z" fill="#EBEBEB"/>
<path d="M348.146 118.109L345.034 116.982L343.981 119.888L347.094 121.015L348.146 118.109Z" fill="#EBEBEB"/>
<path d="M16.0157 139.783L22.5384 137.256C22.5384 137.256 20.4185 131.752 26.1014 129.445C27.189 128.985 28.3926 128.873 29.5462 129.126C30.6998 129.379 31.7467 129.983 32.5424 130.855C33.2195 131.581 33.7156 132.456 33.9904 133.41C34.2653 134.363 34.3111 135.368 34.1242 136.343C33.7165 138.609 31.9228 141.235 27.202 142.14L32.9093 156.922L39.432 154.427L36.0891 145.768C36.0891 145.768 44.2424 139.914 40.4185 129.885C36.7088 120.297 27.2183 121.39 23.5738 122.8C20.7609 123.884 11.4336 128.263 16.0157 139.783Z" fill="#F5F5F5"/>
<path d="M40.6675 157.435L34.0864 159.971L36.4548 166.118L43.0359 163.583L40.6675 157.435Z" fill="#F5F5F5"/>
<path d="M347.373 164.659L342.726 166.444C342.726 166.444 344.226 170.35 340.198 171.98C339.427 172.303 338.576 172.38 337.759 172.202C336.942 172.024 336.2 171.599 335.633 170.986C335.153 170.471 334.802 169.851 334.608 169.175C334.414 168.499 334.382 167.787 334.516 167.096C334.809 165.466 336.081 163.639 339.408 163.02L335.412 152.51L330.814 154.28L333.178 160.419C331.505 161.699 330.298 163.494 329.745 165.527C329.191 167.56 329.32 169.718 330.113 171.67C332.73 178.462 339.432 177.696 342.041 176.693C344.014 175.918 350.618 172.82 347.373 164.659Z" fill="#F5F5F5"/>
<path d="M329.904 152.15L334.568 150.353L332.891 146.001L328.227 147.798L329.904 152.15Z" fill="#F5F5F5"/>
<path d="M360.5 344.952C360.5 345.075 279.905 345.164 180.508 345.164C81.1115 345.164 0.5 345.075 0.5 344.952C0.5 344.83 81.0789 344.74 180.508 344.74C279.937 344.74 360.5 344.838 360.5 344.952Z" fill="#263238"/>
<path d="M52.2001 323.778C53.0155 320.778 51.0016 317.769 48.8002 315.625C46.5988 313.48 43.9653 311.507 42.8157 308.629C40.9568 303.965 43.4517 297.932 40.2882 294.043C38.4211 291.76 35.0782 290.994 33.4231 288.548C32.6579 287.199 32.1518 285.72 31.9311 284.186C30.1718 276.439 26.3616 269.309 20.8997 263.542C20.5315 270.441 22.0269 277.313 25.2291 283.436C26.5091 285.881 28.0909 288.262 28.4904 290.994C29.1834 295.421 26.7048 299.962 27.7974 304.332C29.0448 309.306 34.6298 312.641 34.8907 317.761C35.119 322.09 31.344 325.914 31.6294 330.219C31.8581 332.063 32.5264 333.824 33.578 335.356C36.9209 340.924 41.8455 344.756 49.2976 344.634L58.4292 344.952L52.2001 323.778Z" fill="#0A65FC"/>
<g opacity="0.3">
<path d="M52.2001 323.778C53.0155 320.778 51.0016 317.769 48.8002 315.625C46.5988 313.48 43.9653 311.507 42.8157 308.629C40.9568 303.965 43.4517 297.932 40.2882 294.043C38.4211 291.76 35.0782 290.994 33.4231 288.548C32.6579 287.199 32.1518 285.72 31.9311 284.186C30.1718 276.439 26.3616 269.309 20.8997 263.542C20.5315 270.441 22.0269 277.313 25.2291 283.436C26.5091 285.881 28.0909 288.262 28.4904 290.994C29.1834 295.421 26.7048 299.962 27.7974 304.332C29.0448 309.306 34.6298 312.641 34.8907 317.761C35.119 322.09 31.344 325.914 31.6294 330.219C31.8581 332.063 32.5264 333.824 33.578 335.356C36.9209 340.924 41.8455 344.756 49.2976 344.634L58.4292 344.952L52.2001 323.778Z" fill="black"/>
</g>
<path d="M60.2718 345.14C61.1081 345.269 61.9605 345.252 62.7912 345.091C63.7997 344.937 64.7909 344.686 65.7508 344.341C67.0764 343.88 68.3162 343.202 69.4198 342.335C70.0838 341.801 70.6025 341.108 70.9281 340.321C71.2009 339.439 71.3437 338.521 71.3521 337.598C71.3705 336.611 71.444 335.625 71.5722 334.646C71.744 333.604 72.1209 332.607 72.6811 331.711C73.7573 329.82 75.5511 328.026 76.1218 325.458C76.6925 322.889 76.3012 320.199 75.8772 317.459C75.4532 314.72 75.0619 311.752 76.0892 308.882C77.1165 306.012 79.0733 303.444 80.0761 300.231C81.079 297.019 80.6061 293.48 80.8181 290.032C80.8807 288.28 81.285 286.557 82.0084 284.96C82.7422 283.33 83.7696 281.821 84.5686 280.125C86.1992 276.685 86.4764 272.787 86.9167 268.964C87.1369 267.039 87.3489 265.091 87.569 263.134C87.7078 261.156 88.0493 259.197 88.5882 257.288C89.2068 255.364 89.9363 253.477 90.7732 251.638C91.2042 250.686 91.5587 249.702 91.8332 248.694C91.9868 247.651 92.0847 246.601 92.1267 245.547C92.2239 243.438 92.1421 241.324 91.8821 239.229C91.6375 237.125 91.2543 235.038 91.026 232.926C91.026 232.796 91.026 232.673 91.026 232.559L90.9771 232.143L90.6102 232.323C88.6824 233.312 87.0085 234.732 85.7182 236.473C84.4527 238.177 83.4344 240.052 82.6933 242.041C81.1687 245.963 80.6224 250.072 79.856 253.994C79.0896 257.916 78.1112 261.772 76.1055 265.034C75.1026 266.664 73.8878 268.148 72.8442 269.73C71.7109 271.274 70.9366 273.051 70.5775 274.932C70.0313 278.796 72.1593 282.188 71.719 285.613C71.5204 287.29 70.9643 288.905 70.0884 290.35C69.273 291.809 68.2865 293.162 67.357 294.516C66.4149 295.844 65.5962 297.254 64.911 298.731C64.2661 300.176 63.885 301.726 63.7859 303.305C63.5657 306.387 63.9978 309.306 63.7859 312.062C63.5313 314.688 62.764 317.24 61.5274 319.571C60.4267 321.813 59.1956 323.843 58.1682 325.816C57.6546 326.795 57.1736 327.757 56.7822 328.727C56.4119 329.659 56.1386 330.626 55.9669 331.613C55.694 333.338 55.672 335.093 55.9016 336.823C56.1412 339.237 57.0442 341.537 58.5107 343.468C58.7349 343.76 58.9831 344.033 59.2526 344.284C59.4327 344.473 59.6322 344.642 59.8478 344.789C60.1903 345.042 60.3696 345.156 60.3696 345.156C59.7178 344.641 59.1245 344.056 58.6004 343.411C57.2005 341.473 56.355 339.19 56.1544 336.807C55.9468 335.098 55.9852 333.368 56.2685 331.67C56.4402 330.707 56.7135 329.764 57.0839 328.858C57.497 327.877 57.9624 326.919 58.4781 325.988C59.5135 324.031 60.7528 322.009 61.878 319.75C63.1515 317.382 63.944 314.786 64.2098 312.111C64.4544 309.298 64.0305 306.363 64.2588 303.362C64.3638 301.833 64.7363 300.335 65.3594 298.935C66.0489 297.489 66.8675 296.108 67.8054 294.809C68.7349 293.456 69.7214 292.103 70.5694 290.61C71.5 289.111 72.0952 287.429 72.3142 285.678C72.7545 282.033 70.6428 278.625 71.189 275.03C71.5464 273.231 72.2952 271.533 73.3823 270.056C74.4177 268.499 75.6407 267.015 76.6436 265.343C78.7227 261.992 79.7255 258.063 80.4838 254.125C81.242 250.187 81.8046 246.11 83.3048 242.262C84.0264 240.327 85.0172 238.505 86.2481 236.848C87.4893 235.177 89.0992 233.816 90.9526 232.869L90.5368 232.633C90.5368 232.755 90.5368 232.877 90.5776 233.008C90.8058 235.144 91.189 237.231 91.3929 239.318C91.6503 241.381 91.7295 243.463 91.6293 245.539C91.5881 246.56 91.4956 247.577 91.3521 248.588C91.0886 249.564 90.745 250.515 90.3248 251.434C89.4835 253.293 88.7485 255.199 88.1234 257.141C87.58 259.08 87.2358 261.069 87.0961 263.077C86.8841 265.042 86.664 266.99 86.452 268.915C86.0117 272.755 85.7263 276.587 84.1691 279.905C83.3537 281.536 82.3753 283.093 81.6171 284.756C80.8709 286.413 80.4554 288.199 80.3941 290.015C80.1903 293.538 80.6469 296.986 79.6929 300.101C78.739 303.215 76.7577 305.808 75.7549 308.752C74.752 311.695 75.1189 314.809 75.5592 317.541C75.9995 320.272 76.4398 322.963 75.8527 325.384C75.2657 327.806 73.5861 329.616 72.4936 331.556C71.9175 332.491 71.5324 333.53 71.3603 334.614C71.2371 335.604 71.1718 336.6 71.1646 337.598C71.1659 338.498 71.034 339.394 70.7732 340.256C70.4712 341.003 69.9862 341.662 69.3627 342.172C68.2887 343.038 67.0794 343.721 65.7834 344.194C64.8362 344.559 63.856 344.832 62.8564 345.009C62.2455 345.12 61.6264 345.18 61.0056 345.189C60.4919 345.14 60.2718 345.14 60.2718 345.14Z" fill="#263238"/>
<path d="M89.118 237.598C89.0744 237.686 89.0442 237.779 89.0283 237.875L88.8326 238.691C88.6532 239.416 88.4331 240.501 88.0907 241.854C87.7482 243.208 86.9084 244.74 86.1991 246.624C85.3683 248.744 84.6445 250.905 84.0303 253.098C83.3291 255.543 82.7177 258.234 82.0654 261.137C81.5111 264.228 80.5287 267.228 79.1465 270.048C78.3964 271.532 77.5159 273.032 76.8881 274.679C76.2297 276.361 75.7886 278.12 75.5754 279.914C75.1116 283.628 74.453 287.316 73.6023 290.961C71.7759 298.438 70.0311 305.564 68.4413 312.054C66.8514 318.544 65.3512 324.349 64.1119 329.257C62.8726 334.166 61.9349 338.079 61.2501 340.876C60.9321 342.213 60.6793 343.265 60.5 344.039C60.4266 344.373 60.3613 344.643 60.3124 344.855C60.3034 344.949 60.3034 345.045 60.3124 345.14C60.3598 345.055 60.3955 344.965 60.4184 344.871C60.4755 344.651 60.557 344.39 60.6549 344.056C60.8587 343.297 61.1441 342.245 61.511 340.917C62.2448 338.144 63.2802 334.206 64.5603 329.355C65.8404 324.504 67.3324 318.634 69.0038 312.184C70.6753 305.735 72.3711 298.56 74.2138 291.076C75.0591 287.42 75.7014 283.721 76.138 279.995C76.3463 278.245 76.7736 276.527 77.4099 274.883C78.054 273.252 78.8775 271.793 79.6276 270.293C81.2582 267.317 81.9023 264.121 82.5464 261.243C83.1905 258.365 83.7613 255.641 84.4298 253.212C85.0984 250.782 85.7996 248.613 86.5008 246.738C87.202 244.863 87.9765 243.314 88.3108 241.911C88.6451 240.509 88.8 239.465 88.9468 238.715C89.0011 238.378 89.05 238.106 89.0935 237.9C89.118 237.696 89.1343 237.598 89.118 237.598Z" fill="#263238"/>
<path d="M61.886 345.18C67.8461 341.634 69.5583 330.871 67.0715 324.398C64.5847 317.924 60.2309 312.005 59.5623 305.099C59.0405 299.791 60.7853 294.345 59.5623 289.159C57.8909 282.156 51.0585 276.734 51.14 269.534C51.1808 265.498 53.48 261.699 53.2925 257.663C53.0723 252.722 49.2729 248.792 46.9247 244.439C43.321 237.761 43.0845 229.877 41.8534 222.425C40.6223 214.973 37.7768 206.933 31.14 203.256C30.1616 209.608 28.4902 213.962 29.012 222.563C29.2077 225.653 32.7951 231.532 33.2843 238.34C33.5778 242.417 33.7735 246.444 34.0262 250.488C34.279 254.532 34.5236 258.446 35.9341 262.131C37.0185 264.96 38.7552 267.529 39.5623 270.448C41.0707 275.935 39.0813 281.862 40.3043 287.439C41.3397 292.152 44.6011 296.204 45.2696 300.982C46.1991 307.692 41.8616 314.671 44.0792 321.071C45.1881 324.251 47.7971 326.779 48.5391 330.081C49.118 332.624 48.4902 335.323 49.012 337.875C49.8273 342.001 57.7034 345.213 61.9023 344.944" fill="#0A65FC"/>
<path d="M32.7708 209.526C32.7597 209.645 32.7597 209.766 32.7708 209.885C32.7708 210.154 32.8523 210.496 32.9012 210.928C33.0399 211.85 33.1948 213.195 33.5046 214.94C33.8144 216.685 34.7439 218.658 35.4614 221.039C36.1789 223.419 36.9779 226.143 37.6465 229.192C38.315 232.241 38.9021 235.641 39.4973 239.286C40.0924 242.93 40.7447 246.901 42.5547 250.7C43.3701 252.6 44.3321 254.508 45.0007 256.546C45.6858 258.632 46.1076 260.796 46.2563 262.987C46.5897 267.636 47.1748 272.263 48.0093 276.848C49.8356 286.257 51.5723 295.217 53.154 303.379C54.7357 311.54 56.3256 318.821 57.5975 324.985C58.8695 331.149 59.9131 336.073 60.6387 339.546L61.454 343.501C61.5519 343.925 61.6253 344.259 61.6905 344.52C61.7125 344.64 61.7453 344.757 61.7883 344.871C61.8028 344.751 61.8028 344.631 61.7883 344.512C61.7394 344.243 61.6823 343.908 61.609 343.476C61.4296 342.531 61.1768 341.193 60.8589 339.498C60.174 336.016 59.2282 331.043 57.9971 324.903C56.7659 318.764 55.3065 311.401 53.684 303.273C52.0615 295.144 50.4227 286.151 48.5882 276.75C47.7532 272.165 47.1653 267.538 46.8271 262.889C46.6719 260.653 46.2363 258.445 45.5307 256.318C44.805 254.247 43.8511 252.331 43.0113 250.439C41.2176 246.697 40.5653 242.791 39.9457 239.163C39.326 235.535 38.7308 232.127 38.0215 229.061C37.3122 225.996 36.5376 223.256 35.7386 220.908C34.9396 218.56 34.0509 216.571 33.6921 214.867C33.3334 213.162 33.1622 211.793 32.9909 210.888C32.9094 210.464 32.8442 210.121 32.7953 209.852C32.7935 209.743 32.7854 209.634 32.7708 209.526Z" fill="#263238"/>
<path d="M320.304 39.2043H317.043C317.045 39.5742 316.973 39.9408 316.831 40.2824C316.689 40.624 316.48 40.9335 316.217 41.1928C315.953 41.4521 315.64 41.6557 315.296 41.7918C314.952 41.9278 314.584 41.9933 314.214 41.9846C313.668 42.0042 313.129 41.8529 312.673 41.5518C312.217 41.2508 311.867 40.8149 311.67 40.305C311.498 39.8805 311.429 39.4213 311.469 38.965C311.509 38.5087 311.656 38.0682 311.898 37.6797C312.453 36.7665 313.66 35.943 315.845 36.3262V28.9883H312.64V33.2769C311.325 33.664 310.174 34.4718 309.362 35.5764C308.551 36.681 308.124 38.0214 308.148 39.3919C308.148 44.1371 312.404 45.2378 314.23 45.2378C315.624 45.2704 320.37 44.9361 320.304 39.2043Z" fill="#0A65FC"/>
<path d="M312.616 27.5044H315.869V24.4632H312.616V27.5044Z" fill="#0A65FC"/>
<path d="M338.087 34.8667C338.098 34.7283 338.098 34.5893 338.087 34.4509C338.087 34.1574 338.087 33.7579 338.087 33.2442C338.087 32.9833 338.087 32.6817 338.046 32.3555C338.005 32.0294 337.956 31.6706 337.899 31.2956C337.842 30.9205 337.785 30.4803 337.72 30.0481L337.377 28.6621C336.772 26.2751 335.78 24.003 334.442 21.9356C332.499 18.8739 329.88 16.2985 326.786 14.4073C323.692 12.5161 320.206 11.3596 316.595 11.0265C315.51 10.9308 314.421 10.909 313.333 10.9613C312.787 10.9613 312.224 10.9613 311.703 11.0673L310.023 11.3201C307.719 11.7484 305.488 12.5091 303.403 13.5785C301.225 14.7308 299.224 16.1887 297.459 17.9079C295.652 19.739 294.142 21.8406 292.983 24.137C291.735 26.5045 290.918 29.0746 290.569 31.7277C290.467 32.3999 290.41 33.0781 290.398 33.7579C290.344 34.4386 290.33 35.122 290.357 35.8044C290.535 40.1781 291.902 44.4207 294.312 48.0751V47.8223C293.178 50.6515 292.061 53.4318 290.969 56.1386L290.773 56.636L291.287 56.4892L300.174 54.0433L299.962 53.9943C302.955 56.2602 306.442 57.7857 310.137 58.446C311.851 58.7656 313.599 58.8724 315.339 58.764C316.178 58.7515 317.015 58.6724 317.842 58.5276L319.057 58.34C319.456 58.2666 319.872 58.1443 320.231 58.0547C325.708 56.6669 330.511 53.3748 333.782 48.7681C335.002 47.071 335.981 45.2135 336.692 43.2483C336.847 42.8162 336.994 42.433 337.133 42.009C337.271 41.585 337.345 41.1937 337.434 40.8268C337.524 40.4599 337.622 40.0848 337.703 39.7424C337.785 39.4 337.809 39.0657 337.858 38.7477C337.932 38.1199 338.046 37.5655 338.07 37.117C338.095 36.6686 338.07 36.2365 338.07 35.894C338.07 35.5516 338.07 35.3396 338.07 35.1521C338.07 34.9646 338.07 34.8993 338.07 34.8993C338.058 34.9831 338.058 35.0683 338.07 35.1521C338.07 35.3396 338.07 35.5842 338.013 35.894C337.956 36.2039 337.964 36.636 337.932 37.1089C337.899 37.5818 337.777 38.1362 337.679 38.7395C336.901 43.2521 334.83 47.4417 331.717 50.7995C328.604 54.1574 324.582 56.539 320.141 57.6552C319.758 57.7448 319.375 57.859 318.984 57.9324L317.785 58.1117C316.976 58.2467 316.159 58.3203 315.339 58.3319C313.63 58.4219 311.917 58.3097 310.235 57.9976C306.626 57.3334 303.222 55.834 300.296 53.6193L300.198 53.5377H300.076L291.181 55.9837L291.491 56.3343L294.842 48.0261L294.891 47.8957L294.817 47.7734C293.212 45.3443 292.072 42.6375 291.458 39.7913C291.177 38.4709 291.007 37.1289 290.953 35.7799C290.925 35.1138 290.939 34.4467 290.993 33.7823C290.998 33.1188 291.053 32.4565 291.156 31.8011C291.469 29.2102 292.24 26.6953 293.431 24.3735C294.564 22.1292 296.035 20.0723 297.793 18.2748C299.52 16.587 301.48 15.1564 303.615 14.0269C305.654 12.9662 307.838 12.2108 310.096 11.7848L311.727 11.532C312.273 11.4505 312.82 11.4587 313.358 11.4179C314.421 11.3673 315.485 11.3864 316.546 11.475C320.097 11.7859 323.531 12.902 326.587 14.7386C329.643 16.5751 332.24 19.0839 334.181 22.0742C335.527 24.1056 336.534 26.3413 337.165 28.6947L337.532 30.0644C337.606 30.4966 337.671 30.8798 337.736 31.2874C337.801 31.6951 337.85 32.0212 337.907 32.3474C337.964 32.6735 337.948 32.967 337.973 33.2279C337.973 33.7334 338.038 34.1329 338.062 34.4265C338.047 34.5736 338.055 34.7222 338.087 34.8667Z" fill="#263238"/>
<path d="M94.9476 131.018H142.033C142.033 131.018 142.033 91.4829 183.117 90.7818C204.454 90.4067 215.518 104.39 220.019 115.095C225.237 127.529 223.655 141.699 216.66 153.236C208.678 166.403 191.474 179.636 159.742 174.043L159.44 278.951H206.003V216.758C206.003 216.758 271.303 199.881 271.303 127.887C271.303 59.0329 215.624 44.1613 185.694 43.1992C169.045 42.6693 163.011 41.9518 142.416 44.8788C116.171 48.6293 94.3932 79.1063 94.9476 131.018Z" fill="#0A65FC"/>
<path d="M206.566 300.819H159.31V344.953H206.566V300.819Z" fill="#0A65FC"/>
<path opacity="0.1" d="M206.566 300.819H159.31V344.953H206.566V300.819Z" fill="black"/>
<path opacity="0.1" d="M94.9476 131.018H142.033C142.033 131.018 142.033 91.4829 183.117 90.7818C204.454 90.4067 215.518 104.39 220.019 115.095C225.237 127.529 223.655 141.699 216.66 153.236C208.678 166.403 191.474 179.636 159.742 174.043L159.44 278.951H206.003V216.758C206.003 216.758 271.303 199.881 271.303 127.887C271.303 59.0329 215.624 44.1613 185.694 43.1992C169.045 42.6693 163.011 41.9518 142.416 44.8788C116.171 48.6293 94.3932 79.1063 94.9476 131.018Z" fill="black"/>
<path d="M75.4367 131.018H122.53C122.53 131.018 122.53 91.4831 163.614 90.7819C184.952 90.4068 196.016 104.39 200.508 115.095C205.734 127.529 204.153 141.699 197.157 153.236C189.175 166.404 171.67 178.373 139.937 172.804V278.951H186.501V216.758C186.501 216.758 251.8 199.881 251.8 127.887C251.8 59.033 190.047 43.0444 163.623 43.0444C143.411 43.0689 74.548 47.9527 75.4367 131.018Z" fill="#0A65FC"/>
<path opacity="0.3" d="M75.4367 131.018H122.53C122.53 131.018 122.53 91.4831 163.614 90.7819C184.952 90.4068 196.016 104.39 200.508 115.095C205.734 127.529 204.153 141.699 197.157 153.236C189.175 166.404 171.67 178.373 139.937 172.804V278.951H186.501V216.758C186.501 216.758 251.8 199.881 251.8 127.887C251.8 59.033 190.047 43.0444 163.623 43.0444C143.411 43.0689 74.548 47.9527 75.4367 131.018Z" fill="black"/>
<path d="M187.063 300.819H139.807V344.953H187.063V300.819Z" fill="#0A65FC"/>
<path opacity="0.3" d="M187.063 300.819H139.807V344.953H187.063V300.819Z" fill="black"/>
<path d="M168.93 90.9937C168.697 91.0138 168.463 91.0138 168.229 90.9937C167.765 90.9937 167.096 90.8388 166.224 90.8306C163.757 90.7094 161.284 90.8132 158.837 91.1405C155.207 91.6 151.635 92.4389 148.18 93.6435C146.144 94.3554 144.16 95.2109 142.245 96.2036C140.174 97.2382 138.225 98.4988 136.431 99.9623C134.651 101.439 133.055 103.125 131.678 104.985C130.373 106.704 129.183 108.507 128.115 110.382C126.332 113.576 124.918 116.962 123.9 120.476C123.21 122.847 122.735 125.276 122.481 127.732C122.383 128.597 122.359 129.281 122.334 129.738C122.335 129.973 122.313 130.208 122.269 130.439C122.248 130.206 122.248 129.971 122.269 129.738C122.269 129.273 122.269 128.588 122.343 127.716C122.53 125.233 122.964 122.775 123.639 120.378C124.62 116.824 126.015 113.398 127.797 110.17C128.867 108.274 130.063 106.452 131.376 104.716C132.764 102.826 134.38 101.114 136.187 99.6199C138.002 98.1363 139.976 96.8592 142.074 95.8123C144.001 94.8013 145.998 93.9294 148.05 93.2032C151.536 92.0032 155.142 91.1831 158.804 90.7572C161.268 90.4545 163.756 90.3971 166.232 90.586C166.904 90.629 167.574 90.7107 168.237 90.8306C168.472 90.8686 168.704 90.9231 168.93 90.9937Z" fill="#263238"/>
<path d="M239.88 82.604C239.88 82.604 239.823 82.5469 239.725 82.4246C239.627 82.3023 239.481 82.0904 239.318 81.8539L237.76 79.6525C237.426 79.1796 237.067 78.6334 236.643 78.0708L235.176 76.2852L233.496 74.2224C232.885 73.5049 232.167 72.8119 231.45 72.0537C230.732 71.2954 229.998 70.4882 229.167 69.7137C228.335 68.9391 227.446 68.1482 226.533 67.3329C226.077 66.9252 225.628 66.5176 225.139 66.0855L223.623 64.8869C222.587 64.0716 221.56 63.2563 220.443 62.4409C215.574 58.9576 210.41 55.9075 205.009 53.3256L200.712 51.3851L196.448 49.7544C195.053 49.1756 193.635 48.7679 192.265 48.3113C190.895 47.8547 189.558 47.39 188.188 47.072L184.291 46.0529C183.027 45.7186 181.772 45.5147 180.573 45.2375C179.375 44.9603 178.217 44.7157 177.084 44.5771L173.822 44.1042C171.76 43.7536 169.868 43.6802 168.221 43.5172C167.406 43.452 166.59 43.3623 165.914 43.3297L163.973 43.2807L161.283 43.1911H160.581H160.345C160.423 43.1788 160.503 43.1788 160.581 43.1911H161.283H163.973H165.922C166.631 43.1911 167.406 43.2889 168.237 43.346C169.868 43.4846 171.792 43.5416 173.855 43.8759L177.116 44.3162C178.25 44.4467 179.407 44.7402 180.614 44.9603C181.821 45.1805 183.06 45.4087 184.356 45.7756L188.27 46.7867C189.623 47.0965 190.961 47.602 192.347 48.0178C193.733 48.4336 195.143 48.8331 196.537 49.4528L200.826 51.0834L205.147 53.0321C210.577 55.6198 215.762 58.6925 220.639 62.2127C221.764 63.028 222.791 63.9004 223.826 64.7076L225.343 65.8083C225.832 66.2159 226.281 66.6236 226.737 67.0639L229.362 69.5098C230.178 70.3252 230.912 71.1405 231.637 71.8824C232.363 72.6244 233.056 73.35 233.667 74.0757L235.298 76.1548L236.749 77.9648C237.165 78.5355 237.516 79.0899 237.842 79.5954C238.478 80.5494 238.975 81.2995 239.326 81.8376L239.709 82.4328C239.773 82.4822 239.831 82.5398 239.88 82.604Z" fill="#263238"/>
<path d="M234.972 183.705C234.875 183.881 234.757 184.046 234.621 184.194L233.496 185.523C233.031 186.118 232.444 186.828 231.719 187.618C230.993 188.409 230.219 189.339 229.273 190.301C228.327 191.263 227.316 192.339 226.166 193.424C225.017 194.508 223.769 195.649 222.44 196.84C216.611 201.927 210.221 206.334 203.394 209.975C201.813 210.79 200.32 211.605 198.877 212.233C197.434 212.861 196.089 213.505 194.85 214.027C193.61 214.549 192.469 214.981 191.474 215.364C190.479 215.747 189.607 216.057 188.89 216.285L187.259 216.815C187.07 216.891 186.873 216.945 186.672 216.978C186.848 216.878 187.033 216.796 187.226 216.734L188.857 216.13C189.566 215.878 190.422 215.552 191.409 215.144C192.395 214.736 193.537 214.329 194.76 213.75C195.983 213.171 197.336 212.625 198.747 211.915C200.157 211.206 201.666 210.456 203.239 209.632C206.346 207.92 209.697 205.914 213.08 203.599C216.464 201.283 219.505 198.845 222.212 196.546C223.541 195.372 224.813 194.271 225.946 193.163C227.08 192.054 228.139 191.051 229.077 190.089C230.015 189.127 230.838 188.238 231.572 187.455C232.306 186.673 232.909 185.988 233.398 185.417L234.54 184.121C234.672 183.971 234.817 183.832 234.972 183.705Z" fill="#263238"/>
<path d="M185.677 275.25C185.555 275.25 185.457 262.156 185.457 246.004C185.457 229.853 185.555 216.75 185.677 216.75C185.799 216.75 185.889 229.844 185.889 246.004C185.889 262.164 185.791 275.25 185.677 275.25Z" fill="#263238"/>
<path d="M187.471 341.96C187.348 341.96 187.259 332.771 187.259 321.438C187.259 310.105 187.348 300.908 187.471 300.908C187.593 300.908 187.683 310.097 187.683 321.438C187.683 332.779 187.585 341.96 187.471 341.96Z" fill="#263238"/>
<path d="M233.823 124.765C233.007 126.395 236.048 127.732 237.801 128.262C239.59 128.701 241.441 128.828 243.272 128.637C245.718 128.507 248.221 128.279 250.333 127.072C252.182 125.926 253.661 124.27 254.589 122.302C255.505 120.341 256.228 118.296 256.75 116.196C256.75 116.196 237.483 117.451 233.823 124.765Z" fill="#0A65FC"/>
<g opacity="0.4">
<path d="M233.823 124.765C233.007 126.395 236.048 127.732 237.801 128.262C239.59 128.701 241.441 128.828 243.272 128.637C245.718 128.507 248.221 128.279 250.333 127.072C252.182 125.926 253.661 124.27 254.589 122.302C255.505 120.341 256.228 118.296 256.75 116.196C256.75 116.196 237.483 117.451 233.823 124.765Z" fill="black"/>
</g>
<path d="M288.238 119.546C291.414 121.799 295.22 122.992 299.114 122.954C300.981 123.058 302.821 122.479 304.291 121.324C304.919 120.745 305.392 120.011 306.036 119.457C306.476 119.082 306.99 118.796 307.406 118.397C307.625 118.208 307.795 117.967 307.898 117.697C308.002 117.427 308.038 117.135 308.001 116.848C307.84 116.139 307.443 115.507 306.876 115.054C304.666 113.798 302.025 113.847 299.481 113.904C296.935 114.014 294.42 114.506 292.021 115.364C290.048 116.032 287.985 116.994 286.982 118.788" fill="#0A65FC"/>
<g opacity="0.4">
<path d="M308.001 116.848C307.713 116.16 307.206 115.587 306.558 115.217C304.348 113.962 302.025 113.847 299.481 113.905C296.935 114.015 294.42 114.507 292.021 115.364C290.048 116.033 287.985 116.995 286.982 118.788L288.238 119.547C291.414 121.8 295.22 122.992 299.114 122.955C300.981 123.059 302.821 122.479 304.291 121.324C304.919 120.745 305.392 120.011 306.036 119.457C306.476 119.082 306.99 118.797 307.406 118.397C307.625 118.208 307.795 117.968 307.898 117.697C308.002 117.427 308.038 117.135 308.001 116.848Z" fill="black"/>
</g>
<path d="M250.618 148.809L291.262 149.347C291.345 149.346 291.427 149.327 291.501 149.289C291.574 149.252 291.638 149.198 291.688 149.131C291.737 149.065 291.77 148.988 291.783 148.906C291.797 148.825 291.792 148.741 291.768 148.662L286.998 133.79C286.998 133.79 287.699 126.354 288.67 117.418C290.145 103.843 292.11 86.7784 292.135 86.8273C289.355 79.0327 272.95 77.7119 272.95 77.7119L254.255 78.8208L253.602 77.7201L248.221 80.2231C247.048 80.7692 245.919 81.4071 244.846 82.131C241.291 84.5036 232.73 89.9581 231.165 96.0323C227.553 110.097 233.668 125.792 233.668 125.792L237.598 122.718C238.587 121.955 239.628 121.261 240.712 120.639L248.588 141.748C248.119 142.043 247.723 142.44 247.426 142.908C247.13 143.376 246.942 143.905 246.876 144.455C246.811 146.167 247.691 148.221 250.618 148.809Z" fill="#0A65FC"/>
<g opacity="0.3">
<path d="M268.058 123.925C269.346 116.994 268.67 109.869 267.977 102.857C265.726 108.564 265.808 115.087 263.419 120.745C263.126 121.343 262.912 121.976 262.783 122.628C262.721 122.956 262.737 123.294 262.831 123.614C262.924 123.935 263.092 124.228 263.321 124.471C263.973 125.066 264.952 124.74 265.816 124.642C266.59 124.495 267.343 124.254 268.058 123.925Z" fill="black"/>
</g>
<g opacity="0.4">
<path d="M253.064 139.971C256.326 141.104 259.799 138.992 263.248 138.617C265.531 138.373 267.813 138.894 270.08 139.261C274.663 140.003 279.326 140.118 283.941 139.604C284.649 139.565 285.342 139.385 285.979 139.074C286.308 138.849 286.578 138.548 286.764 138.195C286.95 137.843 287.047 137.45 287.047 137.052C279.367 136.236 271.694 135.796 264.014 135.005C262.102 134.679 260.144 134.743 258.258 135.193C255.942 135.91 254.181 137.728 252.551 139.53" fill="black"/>
</g>
<path d="M306.827 114.173C303.508 106.697 291.809 86.02 291.809 86.02L282.75 97.3775L284.862 119.677C284.862 119.677 289.648 114.336 303.027 114.23C304 114.269 304.951 114.525 305.812 114.979C306.672 115.434 307.42 116.075 308.001 116.856L306.827 114.173Z" fill="#0A65FC"/>
<path d="M252.436 110.22C251.79 108.634 251.277 106.998 250.904 105.328C250.397 103.7 250.026 102.034 249.795 100.346C250.431 101.934 250.941 103.57 251.319 105.238C251.826 106.866 252.199 108.532 252.436 110.22Z" fill="#263238"/>
<path d="M282.066 95.8694C282.361 96.0778 282.634 96.3155 282.881 96.5787C283.601 97.2744 284.277 98.0151 284.903 98.7964C287.011 101.373 288.493 104.404 289.232 107.651C289.616 109.446 289.701 111.291 289.485 113.114C289.281 114.785 288.963 116.253 288.751 117.492C288.539 118.731 288.409 119.742 288.344 120.443C288.342 120.808 288.304 121.171 288.229 121.528C288.172 121.164 288.155 120.795 288.181 120.427C288.216 119.428 288.309 118.432 288.458 117.443C288.629 116.196 288.914 114.712 289.102 113.073C289.29 111.292 289.194 109.492 288.816 107.741C288.086 104.555 286.67 101.566 284.666 98.9839C283.174 96.9782 282 95.9346 282.066 95.8694Z" fill="#263238"/>
<path d="M273.766 147.015C273.482 147.141 273.183 147.229 272.877 147.276C272.529 147.368 272.175 147.436 271.817 147.48C271.401 147.537 270.928 147.626 270.398 147.651C269.156 147.765 267.906 147.765 266.664 147.651C265.144 147.495 263.643 147.194 262.18 146.754C260.724 146.286 259.316 145.683 257.973 144.952C256.884 144.344 255.85 143.643 254.883 142.857C254.459 142.531 254.116 142.188 253.806 141.903C253.539 141.662 253.286 141.406 253.048 141.136C252.821 140.927 252.626 140.685 252.469 140.419C252.526 140.362 253.399 141.34 255.07 142.62C256.047 143.363 257.08 144.028 258.16 144.61C259.488 145.307 260.874 145.888 262.302 146.346C263.74 146.779 265.213 147.085 266.705 147.259C267.923 147.391 269.15 147.429 270.374 147.374C272.469 147.259 273.749 146.95 273.766 147.015Z" fill="#263238"/>
<path d="M286.313 142.384C286.505 142.753 286.614 143.159 286.631 143.574C286.761 144.568 286.686 145.578 286.411 146.542C286.131 147.528 285.563 148.408 284.78 149.07C284.185 149.567 283.729 149.722 283.704 149.681C283.68 149.64 284.063 149.371 284.577 148.866C285.236 148.178 285.715 147.338 285.971 146.42C286.623 144.267 286.158 142.392 286.313 142.384Z" fill="#263238"/>
<path d="M284.104 145.254C284.281 146.092 284.21 146.964 283.9 147.763C283.59 148.563 283.055 149.254 282.359 149.755C282.269 149.665 283.028 148.858 283.501 147.61C283.973 146.363 283.982 145.262 284.104 145.254Z" fill="#263238"/>
<path d="M276.831 118.429C276.399 119.16 275.914 119.857 275.38 120.517C274.958 121.253 274.481 121.956 273.953 122.62C274.11 121.76 274.48 120.952 275.029 120.272C275.464 119.515 276.084 118.881 276.831 118.429Z" fill="#263238"/>
<path d="M248.93 98.6825C248.309 98.3177 247.708 97.9204 247.129 97.4921C244.229 95.5871 240.938 94.3583 237.5 93.8965C236.78 93.8441 236.064 93.7488 235.355 93.6112C236.077 93.5114 236.81 93.5114 237.532 93.6112C241.064 93.9126 244.447 95.1728 247.316 97.2557C247.918 97.6541 248.461 98.1343 248.93 98.6825Z" fill="#263238"/>
<path d="M291.809 85.751C290.35 86.9261 288.986 88.2157 287.732 89.6075C286.577 91.0929 285.544 92.6688 284.642 94.3201C284.739 93.7648 284.929 93.2299 285.205 92.7383C285.795 91.5158 286.534 90.3711 287.406 89.3303C288.28 88.2916 289.283 87.3683 290.39 86.5826C290.812 86.2258 291.292 85.9444 291.809 85.751Z" fill="#263238"/>
<path d="M275.029 79.0327C275.103 79.1503 275.164 79.2762 275.209 79.4078C275.368 79.777 275.496 80.1588 275.592 80.5492C275.936 82.0022 275.936 83.5153 275.592 84.9683C275.084 87.1373 273.923 89.0982 272.265 90.5859C270.173 92.3586 267.506 93.3092 264.764 93.2602C262.02 93.2696 259.346 92.3916 257.141 90.7571C255.384 89.4159 253.959 87.6892 252.975 85.7103C252.312 84.3852 251.845 82.9707 251.589 81.5113C251.514 81.1181 251.465 80.7205 251.442 80.3209C251.419 80.1805 251.419 80.0374 251.442 79.897C251.442 79.897 251.531 80.4677 251.76 81.4787C252.077 82.897 252.578 84.2675 253.252 85.5553C254.246 87.4747 255.659 89.1464 257.386 90.4473C259.51 92.0205 262.08 92.8772 264.723 92.8933C267.366 92.9419 269.939 92.0391 271.972 90.3495C273.573 88.9163 274.709 87.0364 275.233 84.952C275.596 83.545 275.646 82.0755 275.38 80.6471C275.225 79.5708 274.98 79.049 275.029 79.0327Z" fill="#263238"/>
<g opacity="0.3">
<path d="M277.883 119.873C277.883 119.465 277.818 118.984 277.459 118.78C277.345 118.723 277.22 118.693 277.092 118.693C276.965 118.693 276.839 118.723 276.725 118.78C276.497 118.904 276.295 119.07 276.13 119.27C275.172 120.267 274.43 121.452 273.953 122.751L277.948 122.4C277.924 121.577 277.907 120.713 277.883 119.873Z" fill="black"/>
</g>
<g opacity="0.3">
<path d="M291.148 111.467C290.747 109.18 289.745 107.042 288.246 105.27C289.974 110.912 289.395 114.1 288.425 117.965L288.637 117.427C289.754 115.168 291.45 113.749 291.148 111.467Z" fill="black"/>
</g>
<path d="M283.166 300.998L280.728 337.565L264.829 337.378L262.326 299.359L283.166 300.998Z" fill="#FFBE9D"/>
<path d="M281.177 332.755V333.815C281.177 333.815 299.114 341.022 299.285 344.414L263.664 344.218L264.218 332.372C269.526 334.858 275.078 335.168 281.177 332.755Z" fill="#0A65FC"/>
<path d="M267.83 336.171C267.492 336.273 267.203 336.495 267.016 336.795C266.83 337.095 266.76 337.453 266.819 337.801C266.906 338.149 267.125 338.45 267.429 338.64C267.733 338.83 268.099 338.895 268.449 338.821C268.812 338.712 269.122 338.473 269.318 338.149C269.514 337.825 269.582 337.439 269.509 337.068C269.38 336.716 269.119 336.428 268.781 336.265C268.443 336.102 268.055 336.077 267.699 336.195" fill="white"/>
<path d="M263.664 344.219L263.794 341.373L297.907 342.612C297.907 342.612 299.489 343.314 299.302 344.422L263.664 344.219Z" fill="#263238"/>
<path d="M281.307 333.912C281.307 334.084 280.427 334.157 279.571 334.728C278.714 335.298 278.25 336.008 278.095 335.943C277.94 335.877 278.201 334.866 279.253 334.214C280.304 333.562 281.348 333.725 281.307 333.912Z" fill="#263238"/>
<path d="M285.033 335.478C285.074 335.649 284.316 335.934 283.721 336.668C283.126 337.402 282.954 338.176 282.775 338.168C282.596 338.16 282.498 337.174 283.256 336.285C284.014 335.396 285.025 335.355 285.033 335.478Z" fill="#263238"/>
<path d="M287.129 339.962C286.966 339.962 286.729 339.147 287.186 338.177C287.642 337.206 288.449 336.856 288.523 336.994C288.596 337.133 288.091 337.647 287.707 338.438C287.324 339.228 287.308 339.946 287.129 339.962Z" fill="#263238"/>
<path d="M280.264 33.5623C281.185 31.2794 280.068 28.5155 278.087 27.0397C275.999 25.6652 273.452 25.17 271.001 25.6618C268.583 26.1688 266.242 26.9912 264.039 28.1078C263.014 27.0742 261.722 26.3459 260.307 26.0041C258.892 25.6622 257.41 25.7204 256.027 26.172C254.643 26.6236 253.412 27.451 252.472 28.5616C251.531 29.6723 250.917 31.0225 250.7 32.4616C249.818 32.2398 248.893 32.2621 248.023 32.5262C247.153 32.7904 246.372 33.2864 245.763 33.961C245.153 34.6357 244.739 35.4635 244.565 36.3556C244.39 37.2478 244.462 38.1706 244.772 39.025L255.796 42.8978L267.83 64.0964C269.608 65.6137 271.878 66.4322 274.216 66.3991C276.553 66.366 278.799 65.4835 280.534 63.9164C282.269 62.3492 283.374 60.2044 283.644 57.8822C283.914 55.5599 283.33 53.2188 282 51.2957C282.674 50.6961 283.247 49.9912 283.696 49.2085C284.658 48.6398 285.497 47.8856 286.164 46.9898C286.832 46.094 287.315 45.0745 287.585 43.9904C288.653 39.2696 285.001 34.1168 280.264 33.5623Z" fill="#263238"/>
<path d="M272.966 77.712C272.282 74.2632 271.809 71.8987 271.817 71.9232C271.825 71.9476 278.339 69.3957 277.867 60.3211C277.638 55.8041 275.918 48.6863 274.32 42.9138C272.885 37.712 268.034 31.9803 262.905 33.6354L247.357 41.2179C245.8 41.7234 245.531 43.191 245.898 44.7809V45.5962L251.939 70.5942L254.491 81.7642C255.035 84.0578 256.418 86.0646 258.368 87.3896C260.317 88.7145 262.692 89.2614 265.025 88.9228C266.299 88.7436 267.523 88.3059 268.622 87.6367C269.721 86.9674 270.671 86.0806 271.415 85.0308C272.158 83.981 272.68 82.7902 272.946 81.5317C273.213 80.2731 273.22 78.9733 272.966 77.712Z" fill="#FFBE9D"/>
<path d="M274.263 48.9475C274.328 49.2368 274.28 49.5402 274.128 49.795C273.977 50.0499 273.733 50.2368 273.447 50.3172C273.303 50.3575 273.153 50.3681 273.004 50.3486C272.856 50.3291 272.713 50.2797 272.585 50.2036C272.456 50.1274 272.344 50.026 272.255 49.9054C272.167 49.7848 272.104 49.6476 272.07 49.5019C272.004 49.2137 272.053 48.9114 272.205 48.6579C272.356 48.4043 272.6 48.219 272.885 48.1403C273.028 48.0988 273.179 48.0869 273.327 48.1054C273.475 48.1239 273.618 48.1724 273.747 48.2479C273.876 48.3234 273.988 48.4244 274.077 48.5447C274.166 48.6649 274.229 48.802 274.263 48.9475Z" fill="#263238"/>
<path d="M273.554 47.2104C273.439 47.3898 272.453 46.9414 271.246 47.2104C270.039 47.4795 269.273 48.2622 269.11 48.1399C268.947 48.0176 269.11 47.7893 269.444 47.4306C269.893 46.9566 270.476 46.632 271.116 46.5011C271.746 46.3651 272.404 46.4366 272.991 46.7049C273.448 46.8924 273.602 47.137 273.554 47.2104Z" fill="#263238"/>
<path d="M262.424 51.6216C262.49 51.9099 262.441 52.2121 262.289 52.4657C262.138 52.7192 261.894 52.9046 261.609 52.9832C261.468 53.0242 261.321 53.0368 261.175 53.0204C261.029 53.004 260.888 52.9589 260.76 52.8876C260.632 52.8163 260.519 52.7203 260.428 52.6052C260.338 52.49 260.271 52.358 260.231 52.2168C260.166 51.9275 260.214 51.6241 260.366 51.3693C260.517 51.1144 260.761 50.9275 261.046 50.8471C261.188 50.8062 261.336 50.7939 261.482 50.8108C261.628 50.8278 261.769 50.8736 261.898 50.9457C262.026 51.0178 262.139 51.1147 262.229 51.2307C262.319 51.3468 262.386 51.4796 262.424 51.6216Z" fill="#263238"/>
<path d="M261.829 50.0887C261.723 50.268 260.728 49.8115 259.522 50.0887C258.315 50.3659 257.549 51.1323 257.386 51.0181C257.223 50.904 257.386 50.6675 257.72 50.3007C258.171 49.8309 258.754 49.5095 259.391 49.3793C260.021 49.2454 260.678 49.3139 261.267 49.575C261.699 49.7707 261.886 49.9908 261.829 50.0887Z" fill="#263238"/>
<path d="M267.968 57.753C268.566 57.4232 269.201 57.166 269.86 56.9866C270.162 56.8888 270.447 56.7665 270.455 56.5463C270.412 56.222 270.273 55.9181 270.056 55.6739L268.645 53.5052C266.672 50.4151 265.172 47.8549 265.294 47.7979C265.416 47.7408 267.12 50.1623 269.094 53.2524L270.471 55.4375C270.742 55.7719 270.889 56.1895 270.887 56.6197C270.863 56.737 270.813 56.8475 270.741 56.9433C270.669 57.0391 270.577 57.1179 270.471 57.1741C270.312 57.2586 270.142 57.3216 269.966 57.3617C269.321 57.5825 268.649 57.7141 267.968 57.753Z" fill="#263238"/>
<path d="M271.817 71.923C267.693 72.855 263.391 72.6235 259.391 71.2544C259.391 71.2544 263.663 76.8312 272.281 74.1651L271.817 71.923Z" fill="#EB996E"/>
<path d="M262.033 48.3603C261.952 48.7109 260.704 48.7028 259.285 49.0534C257.867 49.404 256.742 49.9339 256.513 49.6567C256.415 49.5263 256.579 49.1838 257.011 48.8414C257.585 48.3577 258.267 48.0193 259 47.8548C259.726 47.6825 260.483 47.6825 261.21 47.8548C261.788 47.9608 262.09 48.1973 262.033 48.3603Z" fill="#263238"/>
<path d="M273.089 43.3626C272.893 43.6888 271.849 43.6072 270.643 43.8437C269.436 44.0801 268.482 44.4878 268.197 44.2513C268.066 44.129 268.197 43.8192 268.547 43.436C269.086 42.9832 269.736 42.6846 270.431 42.5718C271.114 42.4342 271.821 42.4849 272.477 42.7185C272.975 42.9468 273.17 43.1996 273.089 43.3626Z" fill="#263238"/>
<path d="M251.197 35.3804C251.378 36.2637 251.75 37.0963 252.289 37.8193C252.827 38.5422 253.518 39.1377 254.313 39.5634C255.108 39.9891 255.986 40.2346 256.886 40.2825C257.787 40.3303 258.686 40.1794 259.522 39.8403C260.81 39.3185 262.147 38.3401 263.452 38.813C264.756 39.2859 265.294 41.1448 266.542 41.8378C268.376 42.8651 270.618 41.0877 272.665 41.2671C274.295 41.4057 275.527 42.6532 276.79 43.7131C278.054 44.773 279.799 45.572 281.226 44.8056C280.899 43.444 280.415 42.1252 279.783 40.8757C279.145 39.6179 278.09 38.6207 276.798 38.0547C276.081 37.7693 275.306 37.6715 274.622 37.3209C273.146 36.5708 272.485 34.8749 271.417 33.5949C270.716 32.7882 269.832 32.1603 268.84 31.7633C267.847 31.3663 266.774 31.2116 265.71 31.3119C263.949 31.4913 262.277 32.38 260.5 32.3066C259.187 32.2496 257.932 31.6625 256.619 31.687C254.067 31.687 252.151 33.9699 250.732 36.0979" fill="#263238"/>
<path d="M259.791 37.2471C258.617 37.1575 256.22 36.9129 255.429 36.0812C254.625 35.1826 253.6 34.5108 252.455 34.133C251.311 33.7552 250.087 33.6848 248.906 33.9288C247.735 34.278 246.706 34.9941 245.973 35.9716C245.239 36.9492 244.838 38.1365 244.83 39.3588C243.403 39.707 242.097 40.4339 241.049 41.4629C240.002 42.4919 239.251 43.7847 238.878 45.2047C238.498 46.6914 238.485 48.2479 238.84 49.7406C239.195 51.2332 239.908 52.6173 240.916 53.7738C241.406 54.3863 241.853 55.032 242.253 55.7062C241.7 56.392 241.214 57.1292 240.802 57.9076C238.935 62.0331 243.998 63.6149 243.998 63.6149C243.998 66.387 246.566 66.3707 248.205 66.3625C249.844 66.3544 250.749 70.7327 252.029 70.5615L250.733 57.0515C250.922 57.1253 251.124 57.164 251.328 57.1656C254.418 57.2227 253.611 51.3686 252.616 49.8277C253.537 48.6816 254.314 47.4276 254.931 46.0935C255.491 44.054 255.53 41.9066 255.046 39.848C256.081 39.7176 260.296 37.2798 259.791 37.2471Z" fill="#263238"/>
<path d="M251.14 57.7692C251.035 57.3399 250.822 56.9442 250.523 56.6192C250.223 56.2941 249.847 56.0502 249.427 55.9102C249.008 55.7702 248.56 55.7386 248.125 55.8184C247.691 55.8983 247.283 56.0869 246.941 56.3668C246.126 57.068 245.694 58.242 246.183 60.207C247.504 65.4577 252.502 63.0525 252.469 62.9057C252.436 62.759 251.711 59.9379 251.14 57.7692Z" fill="#FFBE9D"/>
<path d="M250.366 61.3158C250.366 61.3158 250.292 61.4055 250.154 61.5115C249.961 61.6593 249.718 61.7265 249.477 61.699C248.874 61.6338 248.181 60.8837 247.92 59.9297C247.795 59.484 247.77 59.0164 247.846 58.56C247.855 58.3827 247.906 58.21 247.995 58.0567C248.085 57.9033 248.21 57.7739 248.36 57.6794C248.459 57.6261 248.574 57.6091 248.684 57.6314C248.794 57.6538 248.893 57.714 248.963 57.8017C249.069 57.924 249.061 58.0382 249.094 58.0463C249.126 58.0545 249.184 57.924 249.094 57.7202C249.031 57.5993 248.931 57.502 248.808 57.443C248.636 57.3732 248.443 57.3732 248.27 57.443C248.066 57.5402 247.889 57.6876 247.756 57.8715C247.624 58.0554 247.54 58.2698 247.512 58.4948C247.406 59.0082 247.426 59.5396 247.569 60.0439C247.66 60.5173 247.889 60.9534 248.227 61.2971C248.565 61.6409 248.997 61.8772 249.469 61.9762C249.622 61.9824 249.775 61.9542 249.916 61.8935C250.057 61.8328 250.183 61.7413 250.284 61.6256C250.39 61.4462 250.39 61.3239 250.366 61.3158Z" fill="#EB996E"/>
<path d="M279.293 50.4394C279.293 50.4394 279.774 50.0725 280.443 49.2571C281.366 48.0824 281.932 46.6675 282.074 45.1805C282.182 44.1654 282.082 43.139 281.78 42.1638C281.432 41.0451 280.787 40.042 279.913 39.2612C278.905 38.3804 277.683 37.7786 276.37 37.5154C275.057 37.2522 273.698 37.3369 272.428 37.761C272.184 37.8425 271.955 37.9648 271.727 38.0627C271.499 38.1605 271.295 38.3073 271.083 38.4296L270.757 38.609V38.2502C270.75 37.6186 270.515 37.0107 270.097 36.538C269.667 36.0793 269.141 35.7226 268.556 35.4944C267.448 35.0329 266.221 34.9414 265.058 35.2335C262.807 35.7472 260.9 36.7745 259.098 36.9865C257.685 37.232 256.231 36.9413 255.021 36.1711C254.702 35.9515 254.425 35.6751 254.206 35.3558C254.075 35.1357 254.01 35.0134 254.026 35.0052C254.322 35.4078 254.683 35.7579 255.094 36.0407C256.285 36.7278 257.683 36.9623 259.033 36.7011C259.971 36.5244 260.889 36.2512 261.772 35.8858C262.808 35.4715 263.87 35.1256 264.952 34.8503C265.555 34.7044 266.175 34.6413 266.794 34.6628C267.449 34.6973 268.092 34.8463 268.694 35.103C269.318 35.3694 269.874 35.7703 270.325 36.2771C270.807 36.8291 271.078 37.5337 271.091 38.2665L270.765 38.0871L271.442 37.6958C271.695 37.5979 271.931 37.4675 272.192 37.3778C273.53 36.9194 274.967 36.8235 276.354 37.0999C277.742 37.3763 279.032 38.0151 280.092 38.9514C281.009 39.7815 281.681 40.8477 282.033 42.0333C282.399 43.29 282.448 44.6177 282.176 45.898C281.905 47.1783 281.32 48.3715 280.476 49.3713C280.207 49.6777 279.903 49.9514 279.571 50.1866C279.489 50.2818 279.396 50.3667 279.293 50.4394Z" fill="#455A64"/>
<path d="M278.233 32.0049C277.698 31.7331 277.127 31.5382 276.538 31.426C275.863 31.3338 275.177 31.398 274.532 31.6135C273.696 31.8692 272.97 32.3973 272.469 33.1137L272.265 33.3991L272.143 33.0729C271.717 32.0707 271.032 31.2001 270.158 30.5508C269.284 29.9016 268.252 29.4973 267.169 29.3795C265.469 29.3156 263.794 29.8016 262.392 30.7656C261.197 31.5442 259.927 32.1998 258.6 32.7223C257.686 33.0683 256.701 33.1858 255.73 33.0648C255.472 33.017 255.218 32.9461 254.972 32.8528C254.809 32.7794 254.719 32.7387 254.728 32.7223C254.736 32.706 255.094 32.8283 255.755 32.8936C256.693 32.9522 257.632 32.7989 258.503 32.4451C259.792 31.883 261.028 31.2063 262.196 30.4231C262.918 29.9751 263.682 29.6008 264.479 29.3061C265.355 28.9868 266.29 28.867 267.218 28.9555C268.375 29.0818 269.475 29.5192 270.403 30.2213C271.33 30.9234 272.05 31.8638 272.485 32.9425H272.167C272.728 32.1763 273.529 31.6195 274.442 31.3607C275.136 31.1595 275.868 31.1232 276.578 31.2548C277.028 31.3402 277.459 31.5059 277.85 31.744C277.99 31.8122 278.119 31.9001 278.233 32.0049Z" fill="#455A64"/>
<path d="M267.495 60.166C267.305 60.0067 267.083 59.8896 266.844 59.8221C266.605 59.7547 266.355 59.7385 266.109 59.7746C265.822 59.8359 265.551 59.9569 265.314 60.1296C265.077 60.3024 264.878 60.5231 264.732 60.7775C264.732 60.7775 264.691 60.8182 264.683 60.8427C264.57 61.0289 264.519 61.2455 264.536 61.4623C264.571 61.6985 264.664 61.9224 264.806 62.1143C264.949 62.3062 265.136 62.4603 265.351 62.563C265.696 62.7377 266.086 62.8017 266.468 62.7463C266.851 62.6908 267.207 62.5186 267.487 62.2532C267.754 61.9716 267.903 61.599 267.905 61.2112C267.906 60.8234 267.76 60.4497 267.495 60.166Z" fill="#0A65FC"/>
<path d="M267.903 62.7018C267.838 62.7018 267.765 62.4572 267.545 62.1229C267.28 61.6748 266.883 61.3188 266.409 61.103C265.936 60.8872 265.407 60.822 264.895 60.9162C264.495 60.9733 264.251 61.0874 264.226 61.0304C264.202 60.9733 264.389 60.7776 264.83 60.6227C265.406 60.4373 266.03 60.4721 266.583 60.7205C267.14 60.9686 267.58 61.4209 267.814 61.9843C267.985 62.4083 267.96 62.6936 267.903 62.7018Z" fill="#263238"/>
<path d="M251.262 63.7129C251.262 63.7129 251.499 64.1206 251.189 64.7402C251.014 65.111 250.705 65.4021 250.325 65.5555C250.087 65.6405 249.833 65.6693 249.583 65.6396C249.333 65.6099 249.092 65.5225 248.882 65.3843C248.667 65.2539 248.485 65.0756 248.351 64.8635C248.217 64.6514 248.133 64.411 248.107 64.1613C248.082 63.7586 248.201 63.3601 248.441 63.0362C248.865 62.4981 249.338 62.4817 249.338 62.5307C249.338 62.5796 248.979 62.7182 248.694 63.2074C248.529 63.4814 248.46 63.8029 248.498 64.1206C248.529 64.3066 248.599 64.4839 248.705 64.6401C248.81 64.7964 248.949 64.9279 249.11 65.0256C249.269 65.1274 249.448 65.1945 249.635 65.2226C249.821 65.2507 250.012 65.2391 250.194 65.1886C250.495 65.0809 250.755 64.8812 250.936 64.6179C251.254 64.1124 251.197 63.7129 251.262 63.7129Z" fill="#0A65FC"/>
<path d="M248.515 63.3948C248.555 63.3948 248.515 63.672 248.131 63.8513C247.943 63.9296 247.736 63.9523 247.536 63.9168C247.335 63.8813 247.149 63.7891 246.998 63.651C246.848 63.513 246.741 63.3349 246.689 63.1378C246.637 62.9407 246.642 62.7328 246.705 62.5387C246.785 62.3182 246.937 62.1313 247.137 62.0087C247.471 61.8049 247.724 61.8864 247.716 61.9353C247.708 61.9842 247.52 62.0413 247.316 62.2451C247.216 62.3704 247.155 62.5226 247.141 62.6824C247.126 62.8423 247.16 63.0028 247.236 63.1439C247.313 63.2849 247.429 63.4002 247.571 63.4753C247.713 63.5504 247.874 63.5819 248.034 63.566C248.311 63.5089 248.458 63.3621 248.515 63.3948Z" fill="#0A65FC"/>
<path d="M257.475 135.804C257.475 135.804 277.663 136.978 289.599 137.084C298.837 137.174 302.962 134.72 304.805 128.776C306.354 123.794 303.028 114.23 303.028 114.23C296.774 114.23 292.918 115.127 288.898 117.011L289.966 121.381L257.418 124.186L257.475 135.804Z" fill="#FFBE9D"/>
<path d="M296.75 126.045C295.874 124.907 294.851 123.889 293.708 123.02C292.482 122.27 291.16 121.688 289.779 121.291C290.214 121.229 290.657 121.268 291.075 121.406C292.101 121.648 293.073 122.076 293.945 122.669C294.818 123.264 295.573 124.016 296.171 124.887C296.627 125.556 296.799 126.02 296.75 126.045Z" fill="#EB996E"/>
<path d="M250.088 116.978C250.088 116.978 243.843 118.478 239.253 121.544L244.145 134.801C245.775 139.155 250.757 141.324 254.744 139.041C260.883 135.527 263.052 125.286 263.052 125.286L269.795 96.0325L258.617 89.0288L250.129 116.978" fill="#FFBE9D"/>
<path d="M258.576 89.0289L259.032 79.4081L256.529 69.6241C256.391 69.086 256.326 68.4093 256.766 68.0831C256.984 67.9157 257.254 67.8291 257.529 67.838C257.804 67.8469 258.067 67.9508 258.274 68.1321C258.951 68.8332 262.212 77.386 262.212 77.386C262.212 77.386 267.161 74.4182 268.042 74.2715C268.922 74.1247 270.023 76.7908 270.096 76.9947C270.129 77.5921 270.129 78.1909 270.096 78.7884C270.096 78.7884 273.154 78.8781 273.431 79.2939C273.653 80.1434 273.771 81.0168 273.782 81.8948C273.782 81.8948 275.078 82.3106 275.282 83.289C275.486 84.2674 275.91 85.8818 275.282 86.2405C274.654 86.5993 273.382 87.3004 273.382 87.3004C273.382 87.3004 272.869 92.2902 272.73 92.7468C272.591 93.2034 269.729 96.0081 269.729 96.0081L258.576 89.0289Z" fill="#FFBE9D"/>
<path d="M248.172 139.237C248.172 139.237 248.474 139.416 249.11 139.62C250.04 139.912 251.024 139.99 251.988 139.849C253.537 139.628 254.988 138.959 256.163 137.924C257.714 136.516 259.025 134.864 260.044 133.032C260.643 131.956 261.148 130.829 261.552 129.665C261.976 128.384 262.327 127.08 262.604 125.76C263.24 123.012 263.933 120.052 264.666 116.905C266.134 110.619 267.781 103.591 269.558 96.0166V95.9595H269.599C270.162 95.4051 270.724 94.8425 271.287 94.2555C271.564 93.9619 271.841 93.6684 272.102 93.3668C272.233 93.2118 272.371 93.0569 272.477 92.902C272.56 92.7486 272.607 92.5787 272.616 92.4047C272.836 90.774 273.007 89.0863 273.187 87.3823V87.2763L273.284 87.2273L274.842 86.3549C274.956 86.2816 275.135 86.2 275.209 86.1348C275.287 86.0643 275.338 85.9694 275.355 85.8657C275.393 85.5953 275.393 85.3209 275.355 85.0504C275.276 84.4525 275.154 83.8612 274.989 83.2812C274.711 82.774 274.246 82.3962 273.692 82.2294L273.554 82.1805V82.0419C273.554 81.569 273.505 81.0798 273.448 80.5987C273.425 80.3578 273.39 80.1183 273.342 79.8812C273.323 79.7768 273.29 79.6753 273.244 79.5796C273.244 79.5225 273.244 79.5796 273.195 79.5306C273.15 79.5074 273.104 79.4883 273.056 79.4736C272.076 79.2599 271.076 79.1479 270.072 79.1393H269.86V78.9273C269.86 78.4218 269.86 77.8592 269.86 77.2966C269.826 77.1047 269.76 76.92 269.664 76.7504C269.583 76.5547 269.485 76.3672 269.387 76.1715C269.196 75.7938 268.973 75.4337 268.719 75.0953C268.603 74.9375 268.463 74.7998 268.303 74.6876C268.244 74.6376 268.171 74.6063 268.094 74.5976C268.017 74.5889 267.939 74.6032 267.871 74.6387C267.476 74.7898 267.092 74.9668 266.721 75.1686C265.205 75.984 263.721 76.7993 262.269 77.6799L262.057 77.8103L261.968 77.582C261.201 75.6497 260.435 73.7418 259.685 71.8747C259.31 70.9371 258.943 69.9995 258.568 69.0781C258.51 68.8717 258.395 68.6858 258.237 68.5416C258.078 68.3974 257.882 68.3008 257.671 68.2628C257.476 68.1981 257.265 68.2016 257.072 68.2728C256.88 68.3439 256.717 68.4784 256.611 68.6542C256.509 68.8291 256.467 69.032 256.489 69.233C256.489 69.4124 256.603 69.6896 256.652 69.9098C256.782 70.3827 256.905 70.8474 257.027 71.3121C257.271 72.2498 257.508 73.1711 257.752 74.0843C258.231 75.9215 258.701 77.7152 259.163 79.4654V79.5225C259 82.8708 258.845 86.0777 258.698 89.1434V89.1271L251.271 113.293L249.175 120.02C248.931 120.778 248.743 121.373 248.613 121.789C248.482 122.205 248.401 122.384 248.401 122.384C248.401 122.384 248.441 122.172 248.556 121.773L249.069 119.987C249.542 118.414 250.219 116.139 251.075 113.236C252.836 107.399 255.339 99.0659 258.364 89.0211V89.0618C258.505 86.0071 258.649 82.8001 258.796 79.441V79.498C258.331 77.7451 257.85 75.9514 257.369 74.125L256.635 71.3529C256.513 70.8882 256.391 70.4153 256.26 69.9505C256.19 69.7064 256.133 69.4588 256.089 69.2086C256.059 68.9256 256.119 68.6403 256.26 68.3933C256.411 68.1389 256.644 67.9434 256.921 67.8388C257.195 67.7588 257.484 67.7497 257.762 67.8124C258.04 67.8752 258.298 68.0077 258.511 68.1976C258.715 68.3895 258.867 68.6311 258.951 68.8988L260.068 71.6953C260.826 73.5706 261.585 75.4785 262.359 77.4026L262.057 77.2966C263.517 76.4324 264.984 75.5682 266.534 74.761C266.925 74.5563 267.328 74.3739 267.74 74.2147C267.869 74.1611 268.009 74.1415 268.148 74.1576C268.287 74.1778 268.421 74.2279 268.539 74.3044C268.736 74.4453 268.909 74.6158 269.053 74.8099C269.326 75.1667 269.563 75.5489 269.762 75.9513C269.868 76.1552 269.966 76.3509 270.056 76.5547C270.172 76.7706 270.249 77.0051 270.284 77.2477C270.284 77.8266 270.284 78.3647 270.284 78.8784L270.08 78.6582C271.128 78.6653 272.173 78.7855 273.195 79.017C273.265 79.0415 273.333 79.0715 273.399 79.1067C273.488 79.1555 273.562 79.2291 273.611 79.3187C273.674 79.451 273.72 79.5907 273.749 79.7345C273.798 79.9954 273.831 80.24 273.863 80.4927C273.912 80.9901 273.945 81.4793 273.969 81.9685L273.823 81.7728C274.156 81.8706 274.466 82.0353 274.734 82.2567C275.001 82.4782 275.221 82.7518 275.38 83.061C275.559 83.6806 275.689 84.313 275.771 84.9526C275.828 85.279 275.828 85.6127 275.771 85.9391C275.736 86.1368 275.632 86.3158 275.478 86.4446C275.344 86.5342 275.205 86.6158 275.062 86.6892L273.513 87.4964L273.619 87.3415C273.431 89.0455 273.26 90.7169 273.032 92.3721L272.983 92.69C272.964 92.8188 272.91 92.94 272.828 93.0406C272.708 93.2191 272.574 93.3881 272.428 93.5461C272.151 93.856 271.874 94.1576 271.613 94.4511C271.05 95.0382 270.488 95.6008 269.917 96.1552L269.974 96.0573C268.181 103.624 266.517 110.652 265.025 116.938C264.283 120.077 263.574 123.037 262.922 125.776C262.643 127.107 262.283 128.419 261.845 129.706C261.426 130.881 260.908 132.018 260.296 133.106C259.255 134.961 257.913 136.63 256.326 138.047C255.116 139.088 253.628 139.751 252.045 139.955C251.06 140.087 250.057 139.986 249.118 139.661C248.879 139.573 248.647 139.467 248.425 139.343L248.172 139.237Z" fill="#EB996E"/>
<path d="M270.105 78.8127C270.105 78.8697 269.827 78.9023 269.395 78.9186C268.847 78.9291 268.3 78.9947 267.765 79.1143C267.248 79.2414 266.771 79.4966 266.379 79.8563C266.085 80.1335 265.955 80.3699 265.889 80.3455C265.824 80.321 265.889 80.0275 266.158 79.6525C266.538 79.1777 267.067 78.8445 267.659 78.7067C268.229 78.566 268.822 78.5383 269.403 78.6251C269.844 78.6822 270.105 78.7556 270.105 78.8127Z" fill="#EB996E"/>
<path d="M267.74 78.9024C267.634 78.8617 267.626 78.6089 267.74 78.3399C267.854 78.0708 268.018 77.8833 268.124 77.924C268.229 77.9648 268.246 78.2175 268.124 78.4866C268.001 78.7557 267.822 78.9432 267.74 78.9024Z" fill="#EB996E"/>
<path d="M273.92 81.8623C273.129 82.1072 272.302 82.2201 271.474 82.1966C271.214 82.1879 270.955 82.2418 270.719 82.3539C270.484 82.466 270.278 82.6329 270.121 82.8407C269.909 83.175 269.982 83.4522 269.917 83.4685C269.852 83.4848 269.656 83.1994 269.86 82.7102C269.972 82.4348 270.177 82.207 270.439 82.0661C270.741 81.9005 271.074 81.8005 271.417 81.7726C272.25 81.6451 273.099 81.6756 273.92 81.8623Z" fill="#EB996E"/>
<path d="M273.382 84.7972C273.496 84.7972 273.562 85.4005 273.529 86.1425C273.496 86.8844 273.374 87.4715 273.26 87.4715C273.146 87.4715 273.072 86.86 273.105 86.118C273.138 85.3761 273.26 84.789 273.382 84.7972Z" fill="#EB996E"/>
<path d="M276.766 106.754L277.491 104.259C277.524 104.145 277.587 104.041 277.672 103.959C277.758 103.876 277.863 103.817 277.978 103.787C278.094 103.758 278.214 103.758 278.329 103.79C278.444 103.821 278.549 103.882 278.633 103.966L279.587 104.936L280.174 102.58C280.208 102.444 280.284 102.321 280.39 102.23C280.496 102.138 280.628 102.081 280.768 102.067C280.908 102.053 281.049 102.082 281.171 102.15C281.294 102.218 281.392 102.323 281.454 102.449L282.783 105.238L276.766 106.754Z" fill="white"/>
<path d="M282.799 106.306C281.887 106.746 280.919 107.059 279.921 107.235C278.956 107.55 277.951 107.726 276.937 107.757C278.814 107.003 280.787 106.515 282.799 106.306Z" fill="white"/>
<path d="M234.312 92.3877C234.312 92.3877 234.01 92.6975 233.586 93.3579C233.017 94.2984 232.643 95.3437 232.485 96.4317C232.253 98.0517 232.204 99.6927 232.339 101.324C232.428 103.174 232.575 105.196 232.803 107.316C233.19 110.937 233.764 114.534 234.524 118.095C234.809 119.465 235.07 120.541 235.249 121.356C235.331 121.699 235.404 121.984 235.461 122.229C235.518 122.473 235.527 122.539 235.527 122.539C235.527 122.539 235.486 122.441 235.429 122.245C235.372 122.049 235.282 121.707 235.192 121.373C234.988 120.614 234.711 119.522 234.377 118.152C233.584 114.593 232.994 110.991 232.608 107.365C232.379 105.245 232.241 103.215 232.159 101.364C232.036 99.7322 232.096 98.0913 232.339 96.4725C232.514 95.3703 232.913 94.3158 233.513 93.3742C233.734 93.011 234.002 92.6791 234.312 92.3877Z" fill="white"/>
<path d="M251.474 81.2833L251.287 81.3811L250.749 81.642C250.284 81.8622 249.607 82.1883 248.8 82.6367C246.696 83.8102 244.652 85.0892 242.677 86.4688C240.345 88.0994 238.282 89.5833 236.774 90.6595L234.988 91.9233L234.491 92.2576C234.436 92.3019 234.375 92.3402 234.312 92.3717C234.358 92.317 234.413 92.2701 234.475 92.2331L234.948 91.8744L236.701 90.5617C238.193 89.461 240.247 87.9282 242.579 86.3301C244.558 84.9447 246.616 83.6761 248.743 82.5307C249.558 82.0986 250.243 81.7888 250.724 81.5849L251.271 81.3566C251.434 81.2996 251.434 81.2751 251.474 81.2833Z" fill="white"/>
<path d="M290.357 86.5908C290.306 86.5624 290.259 86.5267 290.219 86.4848L289.852 86.1668C289.397 85.7832 288.921 85.4266 288.425 85.0987C286.77 84.0434 285.014 83.1558 283.182 82.4489C281.357 81.7258 279.492 81.1052 277.597 80.59C276.864 80.3861 276.277 80.2394 275.861 80.1415L275.396 80.0192C275.339 80.0075 275.284 79.9883 275.233 79.9622H275.404L275.877 80.0518C276.293 80.1334 276.888 80.2638 277.622 80.4514C279.535 80.9342 281.414 81.5416 283.248 82.2695C285.089 82.9762 286.848 83.884 288.49 84.9764C289.174 85.4393 289.8 85.9811 290.357 86.5908Z" fill="white"/>
<path d="M251.703 148.825C251.592 148.805 251.485 148.77 251.385 148.719C251.102 148.594 250.829 148.447 250.569 148.279C250.13 148.015 249.747 147.668 249.442 147.257C249.137 146.846 248.916 146.378 248.792 145.882C248.568 144.879 248.68 143.83 249.11 142.897C249.234 142.608 249.393 142.334 249.583 142.082C249.713 141.911 249.803 141.829 249.811 141.837C249.589 142.185 249.39 142.548 249.216 142.922C248.837 143.838 248.749 144.848 248.963 145.816C249.197 146.772 249.778 147.606 250.594 148.156C251.271 148.645 251.719 148.792 251.703 148.825Z" fill="white"/>
<path d="M249.11 139.995C249.283 140.318 249.412 140.664 249.493 141.022C249.621 141.365 249.698 141.725 249.721 142.09C249.536 141.774 249.404 141.43 249.33 141.071C249.196 140.727 249.122 140.363 249.11 139.995Z" fill="white"/>
<path d="M260.133 322.8L285.001 322.678L284.552 236.701L284.316 149.241L250.618 148.809L244.56 160.223C242.082 164.812 240.502 169.832 239.905 175.013C239.497 178.976 242.465 191.858 243.492 195.119L252.763 224.52L260.133 322.8Z" fill="#263238"/>
<path d="M291.613 149.346L318.943 223.843C320.562 228.643 321.1 233.741 320.517 238.774C319.935 243.806 318.248 248.647 315.575 252.95L283.843 314.915L266.003 292.591L292.551 237.149L269.151 199.196L273.089 149.461L284.112 149.281L291.613 149.346Z" fill="#263238"/>
<path d="M282.049 174.304C282.049 174.304 282.049 174.434 282.049 174.687C282.049 174.94 282.09 175.331 282.123 175.812C282.18 176.815 282.253 178.258 282.351 180.125C282.539 183.9 282.799 189.322 283.166 196.016C283.533 202.71 283.843 210.692 284.251 219.579C284.446 224.015 284.658 228.67 284.87 233.497C285.025 235.943 284.96 238.389 284.985 240.835C285.009 243.281 284.985 245.857 284.985 248.417C284.985 268.906 285.05 287.455 285.074 300.9C285.074 307.602 285.074 313.032 285.074 316.807C285.074 318.674 285.074 320.125 285.074 321.136C285.074 321.609 285.074 321.952 285.074 322.262C285.074 322.571 285.074 322.645 285.074 322.645C285.074 322.645 285.074 322.514 285.074 322.262V321.136C285.074 320.125 285.074 318.69 285.025 316.807C285.025 313.032 284.96 307.61 284.911 300.908C284.854 287.463 284.781 268.915 284.699 248.425C284.699 245.865 284.699 243.338 284.699 240.843C284.699 238.348 284.748 235.886 284.593 233.505C284.389 228.686 284.185 224.031 283.998 219.595C283.623 210.725 283.28 202.743 283.003 196.024C282.726 189.306 282.522 183.909 282.367 180.134C282.302 178.275 282.253 176.823 282.221 175.812C282.221 175.331 282.221 174.997 282.221 174.687C282.221 174.377 282.049 174.304 282.049 174.304Z" fill="#455A64"/>
<path d="M281.421 150.814C281.517 151.077 281.574 151.351 281.593 151.63C281.682 152.151 281.78 152.91 281.894 153.855C282.106 155.739 282.335 158.356 282.465 161.25C282.596 164.145 282.604 166.77 282.563 168.67C282.563 169.616 282.506 170.39 282.465 170.92C282.473 171.195 282.44 171.47 282.367 171.736C282.265 170.717 282.229 169.693 282.261 168.67C282.261 166.77 282.172 164.161 282.041 161.267C281.911 158.372 281.731 155.771 281.593 153.929C281.477 152.895 281.42 151.855 281.421 150.814Z" fill="#455A64"/>
<path d="M275.942 152.494C275.983 152.551 275.519 152.763 275.388 153.424C275.351 153.603 275.362 153.788 275.417 153.963C275.473 154.137 275.572 154.294 275.706 154.418C275.867 154.568 276.068 154.669 276.285 154.708C276.502 154.747 276.726 154.723 276.929 154.639C277.124 154.538 277.288 154.384 277.4 154.196C277.512 154.007 277.57 153.79 277.565 153.57C277.558 153.388 277.503 153.21 277.408 153.055C277.312 152.899 277.178 152.771 277.019 152.682C276.687 152.521 276.317 152.456 275.951 152.494C275.951 152.494 276.032 152.388 276.244 152.323C276.55 152.248 276.872 152.28 277.157 152.413C277.385 152.507 277.582 152.664 277.726 152.864C277.87 153.064 277.955 153.3 277.973 153.546C278.005 153.85 277.941 154.156 277.791 154.421C277.64 154.687 277.41 154.898 277.132 155.026C276.855 155.154 276.545 155.191 276.245 155.134C275.945 155.076 275.671 154.925 275.461 154.704C275.288 154.531 275.165 154.315 275.106 154.078C275.047 153.841 275.055 153.592 275.127 153.358C275.209 153.053 275.393 152.786 275.649 152.6C275.812 152.486 275.934 152.47 275.942 152.494Z" fill="#455A64"/>
<path d="M262.897 151.018C263.017 151.275 263.092 151.551 263.117 151.834C263.249 152.565 263.273 153.312 263.191 154.051C263.074 155.152 262.756 156.221 262.253 157.207C261.646 158.433 260.747 159.491 259.635 160.288C258.524 161.086 257.233 161.598 255.877 161.781C254.792 161.943 253.686 161.901 252.616 161.658C251.892 161.501 251.194 161.24 250.545 160.884C250.3 160.768 250.074 160.614 249.876 160.427C250.778 160.833 251.717 161.147 252.681 161.365C253.841 161.606 255.038 161.604 256.197 161.359C257.356 161.114 258.451 160.632 259.414 159.942C260.377 159.253 261.187 158.371 261.792 157.353C262.397 156.335 262.785 155.202 262.93 154.027C263.026 153.026 263.015 152.017 262.897 151.018Z" fill="#455A64"/>
<path d="M294.891 158.161C294.359 158.222 293.82 158.158 293.317 157.973C292.085 157.585 290.979 156.876 290.113 155.918C289.238 154.965 288.638 153.793 288.376 152.527C288.248 152.01 288.248 151.47 288.376 150.953C288.449 150.953 288.458 151.548 288.702 152.461C289.033 153.641 289.634 154.728 290.457 155.635C291.281 156.543 292.305 157.245 293.447 157.688C294.295 158.022 294.899 158.079 294.891 158.161Z" fill="#455A64"/>
<path d="M304.601 238.47C304.192 238.936 303.704 239.326 303.158 239.62C302.586 239.983 301.962 240.258 301.307 240.435C300.484 240.653 299.615 240.631 298.804 240.37C297.38 239.833 296.16 238.864 295.315 237.598C294.926 237.122 294.605 236.596 294.361 236.032C294.801 236.452 295.199 236.914 295.551 237.41C296.417 238.558 297.586 239.442 298.926 239.962C299.611 240.145 300.325 240.186 301.026 240.084C301.727 239.982 302.4 239.738 303.003 239.367C303.518 239.038 304.052 238.738 304.601 238.47Z" fill="#455A64"/>
<path d="M298.372 243.224C297.409 242.226 296.548 241.133 295.804 239.962C294.947 238.872 294.198 237.701 293.57 236.465C294.54 237.459 295.403 238.552 296.146 239.726C297.01 240.809 297.757 241.982 298.372 243.224Z" fill="#455A64"/>
<path d="M256.595 177.182C256.48 177.223 256.195 176.758 255.942 176.13C255.69 175.503 255.584 174.973 255.69 174.924C255.796 174.875 256.089 175.348 256.334 175.975C256.578 176.603 256.701 177.182 256.595 177.182Z" fill="#FAFAFA"/>
<path d="M272.379 179.449C272.257 179.449 272.167 179.049 272.167 178.552C272.167 178.054 272.257 177.647 272.379 177.647C272.502 177.647 272.591 178.054 272.591 178.552C272.591 179.049 272.494 179.449 272.379 179.449Z" fill="#FAFAFA"/>
<path d="M265.889 188.026C265.775 188.026 265.645 187.536 265.604 186.909C265.563 186.281 265.604 185.775 265.734 185.767C265.865 185.759 265.987 186.256 266.028 186.884C266.069 187.512 266.004 188.017 265.889 188.026Z" fill="#FAFAFA"/>
<path d="M254.034 194.304C253.937 194.377 253.602 194.076 253.162 193.766C252.722 193.456 252.347 193.22 252.347 193.105C252.347 192.991 252.885 193.057 253.382 193.415C253.88 193.774 254.132 194.304 254.034 194.304Z" fill="#FAFAFA"/>
<path d="M274.931 202.302C274.834 202.237 274.931 201.886 275.209 201.487C275.486 201.087 275.739 200.859 275.836 200.924C275.934 200.99 275.836 201.348 275.559 201.74C275.282 202.131 275.029 202.368 274.931 202.302Z" fill="#FAFAFA"/>
<path d="M262.033 204.561C261.919 204.561 261.821 203.884 261.821 203.061C261.821 202.237 261.919 201.552 262.033 201.552C262.147 201.552 262.245 202.229 262.245 203.061C262.245 203.892 262.122 204.561 262.033 204.561Z" fill="#FAFAFA"/>
<path d="M257.809 213.709C257.744 213.798 257.32 213.611 256.864 213.277C256.407 212.942 256.048 212.6 256.154 212.502C256.26 212.404 256.652 212.6 257.108 212.934C257.565 213.268 257.883 213.611 257.809 213.709Z" fill="#FAFAFA"/>
<path d="M270.871 216.889C270.92 216.995 270.659 217.215 270.284 217.386C269.909 217.557 269.566 217.598 269.517 217.492C269.469 217.386 269.738 217.166 270.113 216.995C270.488 216.823 270.83 216.783 270.871 216.889Z" fill="#FAFAFA"/>
<path d="M262.033 231.809C261.935 231.858 261.511 231.23 261.095 230.398C260.679 229.567 260.427 228.849 260.533 228.768C260.639 228.686 261.063 229.346 261.47 230.178C261.878 231.01 262.106 231.719 262.033 231.809Z" fill="#FAFAFA"/>
<path d="M276.44 230.423C276.334 230.366 276.521 229.82 276.848 229.192C277.174 228.564 277.541 228.107 277.663 228.164C277.785 228.222 277.581 228.768 277.247 229.396C276.913 230.023 276.538 230.48 276.44 230.423Z" fill="#FAFAFA"/>
<path d="M270.121 243.052C269.999 243.052 270.015 242.392 269.885 241.625C269.754 240.859 269.558 240.247 269.673 240.19C269.787 240.133 270.178 240.712 270.309 241.56C270.439 242.408 270.235 243.077 270.121 243.052Z" fill="#FAFAFA"/>
<path d="M263.354 250.268C263.272 250.35 262.864 250.04 262.449 249.583C262.033 249.127 261.764 248.694 261.853 248.613C261.943 248.531 262.343 248.841 262.758 249.298C263.174 249.754 263.443 250.186 263.354 250.268Z" fill="#FAFAFA"/>
<path d="M279.774 253.008C279.693 252.926 279.994 252.486 280.451 252.021C280.908 251.556 281.332 251.255 281.421 251.336C281.511 251.418 281.201 251.866 280.753 252.323C280.304 252.779 279.864 253.089 279.774 253.008Z" fill="#FAFAFA"/>
<path d="M270.333 263.811C270.219 263.811 270.219 263.166 270.333 262.416C270.447 261.666 270.626 261.079 270.749 261.096C270.871 261.112 270.863 261.731 270.749 262.482C270.635 263.232 270.447 263.827 270.333 263.811Z" fill="#FAFAFA"/>
<path d="M263.982 269.053C263.876 269.11 263.517 268.686 263.166 268.107C262.816 267.529 262.636 267.015 262.734 266.958C262.832 266.901 263.191 267.317 263.549 267.896C263.908 268.474 264.079 268.988 263.982 269.053Z" fill="#FAFAFA"/>
<path d="M279.285 275.666C279.359 275.763 278.943 276.179 278.356 276.595C277.769 277.011 277.255 277.272 277.182 277.174C277.108 277.076 277.532 276.66 278.111 276.244C278.69 275.829 279.22 275.576 279.285 275.666Z" fill="#FAFAFA"/>
<path d="M266.534 284.251C266.419 284.21 266.534 283.558 266.64 282.743C266.746 281.927 266.68 281.259 266.803 281.242C266.925 281.226 267.137 281.911 267.055 282.783C266.974 283.656 266.64 284.3 266.534 284.251Z" fill="#FAFAFA"/>
<path d="M271.629 296.579C271.531 296.652 271.189 296.375 270.855 295.959C270.52 295.543 270.333 295.144 270.422 295.07C270.512 294.997 270.855 295.274 271.189 295.69C271.523 296.106 271.719 296.505 271.629 296.579Z" fill="#FAFAFA"/>
<path d="M266.06 304.846C265.963 304.911 265.514 304.43 265.058 303.762C264.601 303.093 264.316 302.506 264.405 302.441C264.495 302.376 264.952 302.857 265.408 303.525C265.865 304.194 266.158 304.781 266.06 304.846Z" fill="#FAFAFA"/>
<path d="M281.397 294.467C281.291 294.426 281.299 294.125 281.397 293.799C281.495 293.472 281.715 293.228 281.829 293.269C281.943 293.309 281.927 293.611 281.829 293.945C281.731 294.28 281.511 294.516 281.397 294.467Z" fill="#FAFAFA"/>
<path d="M274.63 314.157C274.524 314.1 274.728 313.521 274.891 312.796C275.054 312.07 275.111 311.458 275.233 311.45C275.355 311.442 275.478 312.103 275.307 312.885C275.135 313.668 274.728 314.222 274.63 314.157Z" fill="#FAFAFA"/>
<path d="M279.033 188.157C278.927 188.206 278.666 187.879 278.454 187.423C278.242 186.966 278.152 186.559 278.258 186.51C278.364 186.461 278.625 186.787 278.837 187.244C279.049 187.7 279.155 188.108 279.033 188.157Z" fill="#FAFAFA"/>
<path d="M267.74 162.767C267.805 162.865 267.235 163.322 266.623 163.974C266.012 164.626 265.596 165.23 265.49 165.173C265.384 165.116 265.661 164.357 266.305 163.689C266.949 163.02 267.659 162.661 267.74 162.767Z" fill="#FAFAFA"/>
<path d="M277.793 162.506C277.671 162.506 277.483 162.041 277.198 161.487C276.913 160.933 276.652 160.476 276.741 160.395C276.831 160.313 277.271 160.672 277.557 161.291C277.842 161.911 277.899 162.441 277.793 162.506Z" fill="#FAFAFA"/>
<path d="M246.403 170.749C246.297 170.7 246.403 170.162 246.656 169.543C246.908 168.923 247.186 168.442 247.3 168.491C247.414 168.54 247.3 169.07 247.047 169.697C246.794 170.325 246.541 170.79 246.403 170.749Z" fill="#FAFAFA"/>
<path d="M247.422 183.061C247.341 183.15 246.876 182.889 246.379 182.474C245.881 182.058 245.563 181.658 245.612 181.56C245.661 181.463 246.158 181.732 246.656 182.147C247.153 182.563 247.496 182.971 247.422 183.061Z" fill="#FAFAFA"/>
<path d="M268.017 152.991C267.911 152.991 267.683 152.73 267.52 152.315C267.357 151.899 267.308 151.499 267.414 151.499C267.52 151.499 267.748 151.76 267.911 152.176C268.074 152.592 268.123 152.951 268.017 152.991Z" fill="#FAFAFA"/>
<path d="M287.74 159.008C287.626 159.008 287.634 158.495 287.74 157.916C287.846 157.337 288.058 156.88 288.172 156.905C288.286 156.929 288.278 157.427 288.172 158.005C288.066 158.584 287.854 159.033 287.74 159.008Z" fill="#FAFAFA"/>
<path d="M292.371 168.327C292.265 168.279 292.412 167.675 292.706 166.966C292.999 166.257 293.317 165.727 293.423 165.767C293.529 165.808 293.423 166.42 293.097 167.129C292.771 167.838 292.485 168.368 292.371 168.327Z" fill="#FAFAFA"/>
<path d="M289.069 175.845C288.963 175.894 288.572 175.331 288.197 174.589C287.822 173.847 287.61 173.187 287.716 173.138C287.822 173.089 288.205 173.652 288.58 174.394C288.955 175.136 289.175 175.788 289.069 175.845Z" fill="#FAFAFA"/>
<path d="M296.13 183.362C296.024 183.322 296.13 182.849 296.309 182.311C296.489 181.773 296.774 181.365 296.888 181.406C297.002 181.446 296.888 181.919 296.709 182.457C296.529 182.996 296.277 183.403 296.13 183.362Z" fill="#FAFAFA"/>
<path d="M289.819 190.725C289.721 190.79 289.469 190.57 289.265 190.244C289.061 189.917 288.963 189.591 289.069 189.526C289.175 189.461 289.412 189.681 289.624 190.015C289.836 190.35 289.917 190.668 289.819 190.725Z" fill="#FAFAFA"/>
<path d="M291.165 205.923C291.083 205.996 290.569 205.596 290.031 205.009C289.493 204.422 289.126 203.892 289.216 203.811C289.306 203.729 289.811 204.137 290.349 204.724C290.887 205.311 291.254 205.841 291.165 205.923Z" fill="#FAFAFA"/>
<path d="M299.44 197.191C299.351 197.264 298.902 196.856 298.446 196.269C297.989 195.682 297.695 195.16 297.785 195.087C297.875 195.014 298.323 195.429 298.78 196.008C299.236 196.587 299.538 197.125 299.44 197.191Z" fill="#FAFAFA"/>
<path d="M303.982 209.233C303.876 209.184 304.063 208.572 304.398 207.871C304.732 207.17 305.082 206.632 305.213 206.681C305.343 206.729 305.14 207.349 304.805 208.05C304.471 208.752 304.088 209.29 303.982 209.233Z" fill="#FAFAFA"/>
<path d="M294.328 219.147C294.222 219.204 293.847 218.756 293.325 218.275C292.803 217.794 292.322 217.459 292.371 217.337C292.42 217.215 293.04 217.435 293.611 217.965C294.181 218.495 294.426 219.09 294.328 219.147Z" fill="#FAFAFA"/>
<path d="M294.932 229.363C294.932 229.477 294.524 229.575 294.026 229.575C293.529 229.575 293.13 229.477 293.13 229.363C293.13 229.249 293.529 229.151 294.026 229.151C294.524 229.151 294.932 229.249 294.932 229.363Z" fill="#FAFAFA"/>
<path d="M304.854 226.509C304.748 226.452 304.96 225.939 305.115 225.303C305.27 224.667 305.335 224.112 305.457 224.104C305.579 224.096 305.71 224.691 305.53 225.4C305.351 226.11 304.943 226.575 304.854 226.509Z" fill="#FAFAFA"/>
<path d="M314.711 229.942C314.605 229.983 314.304 229.404 314.043 228.662C313.782 227.92 313.659 227.284 313.765 227.251C313.871 227.219 314.181 227.781 314.442 228.523C314.703 229.265 314.825 229.901 314.711 229.942Z" fill="#FAFAFA"/>
<path d="M313.138 243.965C313.04 243.908 313.293 243.223 313.7 242.433C314.108 241.642 314.516 241.047 314.638 241.104C314.76 241.161 314.491 241.846 314.075 242.628C313.66 243.411 313.244 244.039 313.138 243.965Z" fill="#FAFAFA"/>
<path d="M304.145 252.192C304.039 252.233 303.704 251.67 303.394 250.928C303.085 250.186 302.93 249.55 303.044 249.501C303.158 249.453 303.484 250.023 303.786 250.765C304.087 251.507 304.251 252.192 304.145 252.192Z" fill="#FAFAFA"/>
<path d="M294.181 255.38C294.181 255.494 293.839 255.592 293.423 255.592C293.007 255.592 292.673 255.494 292.673 255.38C292.673 255.266 293.015 255.168 293.423 255.168C293.831 255.168 294.181 255.266 294.181 255.38Z" fill="#FAFAFA"/>
<path d="M299.888 268.499C299.782 268.499 299.554 268.05 299.383 267.431C299.212 266.811 299.179 266.273 299.293 266.248C299.407 266.224 299.627 266.697 299.799 267.317C299.97 267.936 300.002 268.434 299.888 268.499Z" fill="#FAFAFA"/>
<path d="M292.673 264.096C292.575 264.039 292.673 263.656 292.942 263.24C293.211 262.824 293.48 262.539 293.578 262.596C293.676 262.653 293.578 263.045 293.309 263.46C293.04 263.876 292.779 264.162 292.673 264.096Z" fill="#FAFAFA"/>
<path d="M292.526 278.536C292.412 278.536 292.249 277.989 292.167 277.28C292.086 276.571 292.11 275.992 292.224 275.975C292.339 275.959 292.502 276.522 292.583 277.231C292.665 277.94 292.64 278.519 292.526 278.536Z" fill="#FAFAFA"/>
</svg>
