<svg width="60" height="60" viewBox="0 0 60 60" fill="none" xmlns="http://www.w3.org/2000/svg">
<g filter="url(#filter0_d_3960_110)">
<rect x="12" y="4" width="36" height="36" rx="18" fill="#C6F7E4" shape-rendering="crispEdges"/>
<rect x="12.5" y="4.5" width="35" height="35" rx="17.5" stroke="white" stroke-opacity="0.6" shape-rendering="crispEdges"/>
<path d="M36.707 25.6265C36.2148 22.6649 34.6824 20.4596 33.3502 19.1642C32.9626 18.7873 32.7688 18.5988 32.3406 18.4244C31.9124 18.25 31.5444 18.25 30.8083 18.25H29.1916C28.4556 18.25 28.0876 18.25 27.6594 18.4244C27.2313 18.5988 27.0374 18.7873 26.6498 19.1642C25.3176 20.4596 23.7852 22.6649 23.293 25.6265C22.9267 27.83 24.9595 29.5 27.2312 29.5H32.7688C35.0405 29.5 37.0733 27.83 36.707 25.6265Z" stroke="#12E691" stroke-width="1.5" stroke-linecap="round"/>
<path d="M26.4425 16.3322C26.2877 16.1069 26.0635 15.8012 26.5267 15.7315C27.0029 15.6599 27.4974 15.9859 27.9814 15.9792C28.4193 15.9731 28.6423 15.7789 28.8817 15.5016C29.1337 15.2096 29.5239 14.5 30 14.5C30.4761 14.5 30.8663 15.2096 31.1183 15.5016C31.3577 15.7789 31.5807 15.9731 32.0185 15.9792C32.5026 15.9859 32.9971 15.6599 33.4733 15.7315C33.9365 15.8012 33.7123 16.1069 33.5576 16.3322L32.8579 17.3505C32.5586 17.7861 32.409 18.0039 32.0958 18.127C31.7827 18.25 31.378 18.25 30.5686 18.25H29.4314C28.622 18.25 28.2173 18.25 27.9042 18.127C27.591 18.0039 27.4414 17.7861 27.1421 17.3505L26.4425 16.3322Z" stroke="#12E691" stroke-width="1.5"/>
</g>
<defs>
<filter id="filter0_d_3960_110" x="0" y="0" width="60" height="60" filterUnits="userSpaceOnUse" color-interpolation-filters="sRGB">
<feFlood flood-opacity="0" result="BackgroundImageFix"/>
<feColorMatrix in="SourceAlpha" type="matrix" values="0 0 0 0 0 0 0 0 0 0 0 0 0 0 0 0 0 0 127 0" result="hardAlpha"/>
<feOffset dy="8"/>
<feGaussianBlur stdDeviation="6"/>
<feComposite in2="hardAlpha" operator="out"/>
<feColorMatrix type="matrix" values="0 0 0 0 0.064 0 0 0 0 0.160264 0 0 0 0 0.32 0 0 0 0.06 0"/>
<feBlend mode="normal" in2="BackgroundImageFix" result="effect1_dropShadow_3960_110"/>
<feBlend mode="normal" in="SourceGraphic" in2="effect1_dropShadow_3960_110" result="shape"/>
</filter>
</defs>
</svg>
