<svg width="54" height="55" viewBox="0 0 54 55" fill="none" xmlns="http://www.w3.org/2000/svg">
<g filter="url(#filter0_d_3960_119)">
<rect x="9" y="3.5" width="36" height="36" rx="18" fill="#D4E2FF" shape-rendering="crispEdges"/>
<rect x="9.375" y="3.875" width="35.25" height="35.25" rx="17.625" stroke="white" stroke-opacity="0.6" stroke-width="0.75" shape-rendering="crispEdges"/>
<path d="M28.2957 15.0831L29.6155 17.7447C29.7955 18.1152 30.2755 18.4705 30.6805 18.5386L33.0727 18.9393C34.6025 19.1964 34.9625 20.3154 33.8601 21.4194L32.0003 23.2945C31.6853 23.6121 31.5129 24.2245 31.6103 24.6631L32.1428 26.9844C32.5627 28.8217 31.5953 29.5325 29.983 28.5722L27.7408 27.2339C27.3358 26.9919 26.6684 26.9919 26.2559 27.2339L24.0137 28.5722C22.4089 29.5325 21.434 28.8141 21.8539 26.9844L22.3864 24.6631C22.4839 24.2245 22.3114 23.6121 21.9964 23.2945L20.1366 21.4194C19.0417 20.3154 19.3942 19.1964 20.924 18.9393L23.3163 18.5386C23.7137 18.4705 24.1937 18.1152 24.3737 17.7447L25.6935 15.0831C26.4134 13.639 27.5833 13.639 28.2957 15.0831Z" stroke="#0A65FC" stroke-width="1.125" stroke-linecap="round" stroke-linejoin="round"/>
</g>
<defs>
<filter id="filter0_d_3960_119" x="0" y="0.5" width="54" height="54" filterUnits="userSpaceOnUse" color-interpolation-filters="sRGB">
<feFlood flood-opacity="0" result="BackgroundImageFix"/>
<feColorMatrix in="SourceAlpha" type="matrix" values="0 0 0 0 0 0 0 0 0 0 0 0 0 0 0 0 0 0 127 0" result="hardAlpha"/>
<feOffset dy="6"/>
<feGaussianBlur stdDeviation="4.5"/>
<feComposite in2="hardAlpha" operator="out"/>
<feColorMatrix type="matrix" values="0 0 0 0 0.064 0 0 0 0 0.160264 0 0 0 0 0.32 0 0 0 0.06 0"/>
<feBlend mode="normal" in2="BackgroundImageFix" result="effect1_dropShadow_3960_119"/>
<feBlend mode="normal" in="SourceGraphic" in2="effect1_dropShadow_3960_119" result="shape"/>
</filter>
</defs>
</svg>
