<svg width="146" height="55" viewBox="0 0 146 55" fill="none" xmlns="http://www.w3.org/2000/svg">
<rect width="146" height="55" rx="27.5" fill="#EBF2FF"/>
<path d="M22.1348 36V19.2H24.5348V34.104H32.2148V36H22.1348ZM38.9134 36.288C37.9214 36.288 37.0974 36.12 36.4414 35.784C35.7854 35.448 35.2974 35 34.9774 34.44C34.6574 33.864 34.4974 33.248 34.4974 32.592C34.4974 31.792 34.7054 31.112 35.1214 30.552C35.5374 29.976 36.1294 29.536 36.8974 29.232C37.6654 28.928 38.5854 28.776 39.6574 28.776H42.8014C42.8014 28.072 42.6974 27.488 42.4894 27.024C42.2814 26.56 41.9694 26.216 41.5534 25.992C41.1534 25.752 40.6414 25.632 40.0174 25.632C39.2974 25.632 38.6814 25.808 38.1694 26.16C37.6574 26.496 37.3374 27 37.2094 27.672H34.8094C34.9054 26.824 35.1934 26.104 35.6734 25.512C36.1694 24.904 36.8014 24.44 37.5694 24.12C38.3374 23.784 39.1534 23.616 40.0174 23.616C41.1534 23.616 42.1054 23.816 42.8734 24.216C43.6414 24.616 44.2174 25.184 44.6014 25.92C45.0014 26.64 45.2014 27.504 45.2014 28.512V36H43.1134L42.9214 33.96C42.7454 34.28 42.5374 34.584 42.2974 34.872C42.0574 35.16 41.7694 35.408 41.4334 35.616C41.1134 35.824 40.7374 35.984 40.3054 36.096C39.8894 36.224 39.4254 36.288 38.9134 36.288ZM39.3694 34.344C39.8814 34.344 40.3454 34.24 40.7614 34.032C41.1774 33.824 41.5294 33.544 41.8174 33.192C42.1214 32.824 42.3454 32.416 42.4894 31.968C42.6494 31.504 42.7374 31.032 42.7534 30.552V30.48H39.8974C39.2094 30.48 38.6494 30.568 38.2174 30.744C37.8014 30.904 37.4974 31.128 37.3054 31.416C37.1134 31.704 37.0174 32.04 37.0174 32.424C37.0174 32.824 37.1054 33.168 37.2814 33.456C37.4734 33.728 37.7454 33.944 38.0974 34.104C38.4494 34.264 38.8734 34.344 39.3694 34.344ZM52.7048 36.288C51.7608 36.288 50.9368 36.096 50.2328 35.712C49.5448 35.328 49.0088 34.752 48.6248 33.984C48.2568 33.216 48.0728 32.248 48.0728 31.08V23.904H50.4728V30.816C50.4728 31.952 50.7208 32.808 51.2168 33.384C51.7128 33.96 52.4248 34.248 53.3528 34.248C53.9768 34.248 54.5368 34.096 55.0328 33.792C55.5448 33.488 55.9448 33.048 56.2328 32.472C56.5208 31.896 56.6648 31.192 56.6648 30.36V23.904H59.0648V36H56.9288L56.7608 33.936C56.3928 34.672 55.8568 35.248 55.1528 35.664C54.4488 36.08 53.6328 36.288 52.7048 36.288ZM62.3508 36V23.904H64.5108L64.6548 25.968C65.0388 25.248 65.5828 24.68 66.2868 24.264C66.9908 23.832 67.7988 23.616 68.7108 23.616C69.6708 23.616 70.4948 23.808 71.1828 24.192C71.8708 24.576 72.4068 25.16 72.7908 25.944C73.1748 26.712 73.3668 27.68 73.3668 28.848V36H70.9668V29.088C70.9668 27.968 70.7188 27.12 70.2228 26.544C69.7268 25.968 69.0068 25.68 68.0628 25.68C67.4388 25.68 66.8788 25.832 66.3828 26.136C65.8868 26.424 65.4868 26.856 65.1828 27.432C64.8948 28.008 64.7508 28.712 64.7508 29.544V36H62.3508ZM81.8127 36.288C80.6607 36.288 79.6447 36.016 78.7647 35.472C77.8847 34.912 77.1967 34.16 76.7007 33.216C76.2207 32.256 75.9807 31.168 75.9807 29.952C75.9807 28.72 76.2207 27.632 76.7007 26.688C77.1967 25.744 77.8847 25 78.7647 24.456C79.6607 23.896 80.6847 23.616 81.8367 23.616C82.7807 23.616 83.6127 23.808 84.3327 24.192C85.0527 24.56 85.6127 25.088 86.0127 25.776V18.72H88.4127V36H86.2527L86.0127 34.128C85.7727 34.496 85.4607 34.848 85.0767 35.184C84.6927 35.504 84.2287 35.768 83.6847 35.976C83.1407 36.184 82.5167 36.288 81.8127 36.288ZM82.1967 34.2C82.9487 34.2 83.6127 34.024 84.1887 33.672C84.7647 33.32 85.2047 32.824 85.5087 32.184C85.8287 31.544 85.9887 30.8 85.9887 29.952C85.9887 29.104 85.8287 28.368 85.5087 27.744C85.2047 27.104 84.7647 26.608 84.1887 26.256C83.6127 25.888 82.9487 25.704 82.1967 25.704C81.4767 25.704 80.8287 25.888 80.2527 26.256C79.6767 26.608 79.2287 27.104 78.9087 27.744C78.5887 28.368 78.4287 29.104 78.4287 29.952C78.4287 30.8 78.5887 31.544 78.9087 32.184C79.2287 32.824 79.6767 33.32 80.2527 33.672C80.8287 34.024 81.4767 34.2 82.1967 34.2ZM91.6945 36V23.904H93.8545L94.0705 26.184C94.3425 25.64 94.6945 25.184 95.1265 24.816C95.5585 24.432 96.0625 24.136 96.6385 23.928C97.2305 23.72 97.9025 23.616 98.6545 23.616V26.16H97.7905C97.2945 26.16 96.8225 26.224 96.3745 26.352C95.9265 26.464 95.5265 26.664 95.1745 26.952C94.8385 27.24 94.5745 27.632 94.3825 28.128C94.1905 28.624 94.0945 29.24 94.0945 29.976V36H91.6945ZM102.251 41.28L105.203 34.656H104.507L99.7306 23.904H102.323L106.115 32.688L109.931 23.904H112.451L104.771 41.28H102.251ZM116.61 30.984L116.514 27.192H117.378C118.034 27.192 118.65 27.152 119.226 27.072C119.818 26.992 120.338 26.84 120.786 26.616C121.234 26.376 121.586 26.04 121.842 25.608C122.114 25.16 122.25 24.584 122.25 23.88C122.25 23.256 122.122 22.728 121.866 22.296C121.61 21.848 121.242 21.512 120.762 21.288C120.298 21.048 119.762 20.928 119.154 20.928C118.53 20.928 117.978 21.048 117.498 21.288C117.034 21.512 116.674 21.84 116.418 22.272C116.162 22.688 116.034 23.192 116.034 23.784H113.754C113.754 22.824 113.978 21.976 114.426 21.24C114.874 20.504 115.506 19.936 116.322 19.536C117.138 19.12 118.082 18.912 119.154 18.912C120.21 18.912 121.146 19.112 121.962 19.512C122.778 19.912 123.418 20.48 123.882 21.216C124.346 21.952 124.578 22.84 124.578 23.88C124.578 25.032 124.33 25.976 123.834 26.712C123.338 27.432 122.65 27.968 121.77 28.32C120.906 28.656 119.906 28.824 118.77 28.824L118.722 30.984H116.61ZM117.666 36.12C117.202 36.12 116.818 35.976 116.514 35.688C116.226 35.384 116.082 35.024 116.082 34.608C116.082 34.176 116.226 33.816 116.514 33.528C116.818 33.224 117.202 33.072 117.666 33.072C118.13 33.072 118.506 33.224 118.794 33.528C119.082 33.816 119.226 34.176 119.226 34.608C119.226 35.024 119.082 35.384 118.794 35.688C118.506 35.976 118.13 36.12 117.666 36.12Z" fill="#0A65FC"/>
</svg>
