<svg width="60" height="60" viewBox="0 0 60 60" fill="none" xmlns="http://www.w3.org/2000/svg">
<g filter="url(#filter0_d_3960_91)">
<rect x="12" y="4" width="36" height="36" rx="18" fill="#D4E2FF" shape-rendering="crispEdges"/>
<rect x="12.5" y="4.5" width="35" height="35" rx="17.5" stroke="white" stroke-opacity="0.6" shape-rendering="crispEdges"/>
<path d="M22.875 22C22.875 18.6412 22.875 16.9619 23.9184 15.9184C24.9619 14.875 26.6412 14.875 30 14.875C33.3587 14.875 35.0381 14.875 36.0816 15.9184C37.125 16.9619 37.125 18.6412 37.125 22C37.125 25.3587 37.125 27.0381 36.0816 28.0816C35.0381 29.125 33.3587 29.125 30 29.125C26.6412 29.125 24.9619 29.125 23.9184 28.0816C22.875 27.0381 22.875 25.3587 22.875 22Z" stroke="#0A65FC" stroke-width="1.5" stroke-linejoin="round"/>
<path d="M30.0059 20.8812C29.3846 20.8812 28.8809 21.3849 28.8809 22.0062C28.8809 22.6275 29.3846 23.1312 30.0059 23.1312C30.6272 23.1312 31.1309 22.6275 31.1309 22.0062C31.1309 21.3849 30.6272 20.8812 30.0059 20.8812ZM30.0059 20.8812V18.2493M32.261 24.2649L30.7996 22.8034" stroke="#0A65FC" stroke-width="1.5" stroke-linecap="round" stroke-linejoin="round"/>
</g>
<defs>
<filter id="filter0_d_3960_91" x="0" y="0" width="60" height="60" filterUnits="userSpaceOnUse" color-interpolation-filters="sRGB">
<feFlood flood-opacity="0" result="BackgroundImageFix"/>
<feColorMatrix in="SourceAlpha" type="matrix" values="0 0 0 0 0 0 0 0 0 0 0 0 0 0 0 0 0 0 127 0" result="hardAlpha"/>
<feOffset dy="8"/>
<feGaussianBlur stdDeviation="6"/>
<feComposite in2="hardAlpha" operator="out"/>
<feColorMatrix type="matrix" values="0 0 0 0 0.064 0 0 0 0 0.160264 0 0 0 0 0.32 0 0 0 0.06 0"/>
<feBlend mode="normal" in2="BackgroundImageFix" result="effect1_dropShadow_3960_91"/>
<feBlend mode="normal" in="SourceGraphic" in2="effect1_dropShadow_3960_91" result="shape"/>
</filter>
</defs>
</svg>
